<svg xmlns="http://www.w3.org/2000/svg" width="204.762" height="204.603" viewBox="0 0 204.762 204.603"><path fill="#066672" stroke="#31415D" stroke-width="2" stroke-linecap="round" stroke-linejoin="round" stroke-miterlimit="10" d="M127.344 176.643H6.05V10.683h121.294c5.286 0 9.57 4.268 9.57 9.55V167.07c0 5.284-4.284 9.573-9.57 9.573zm0 0"/><path fill="#FFF" stroke="#31415D" stroke-width="1.3" stroke-linecap="round" stroke-linejoin="round" stroke-miterlimit="10" d="M6.05 64.96h130.865v57.444H6.05z"/><path fill="#FFF" stroke="#31415D" stroke-width="2" stroke-linecap="round" stroke-linejoin="round" stroke-miterlimit="10" d="M37.968 200.05l-9.567-6.39-9.586 6.39v-23.407h19.154v23.408zm0 0M198.95 144.01l-19.607 33.81-19.608-33.81"/><path fill="#066672" stroke="#31415D" stroke-width="2" stroke-linecap="round" stroke-linejoin="round" stroke-miterlimit="10" d="M159.735 33.1h39.216v110.91h-39.215z"/><path fill="#FFF" stroke="#31415D" stroke-width="2" stroke-linecap="round" stroke-linejoin="round" stroke-miterlimit="10" d="M198.95 34.297h-39.215v-15.65c0-4.714 3.82-8.535 8.534-8.535h22.147c4.713 0 8.534 3.82 8.534 8.534v15.65z"/><path fill="#066672" stroke="#31415D" stroke-width="1.3" stroke-linecap="round" stroke-linejoin="round" stroke-miterlimit="10" d="M186.017 144.01V34.298M172.614 144.01V34.298"/><path fill="#FFF" stroke="#182A47" stroke-width="1.3" stroke-linecap="round" stroke-linejoin="round" stroke-miterlimit="10" d="M186.017 166.314h-13.403"/><path fill="#066672" stroke="#31415D" stroke-width="1.3" stroke-linecap="round" stroke-linejoin="round" stroke-miterlimit="10" d="M186.017 166.314l-6.67 11.508-6.68-11.508zM101.802 10.682h15.958v165.96h-15.958z"/><path fill="#B6CC00" d="M66.138 104.565c-9.776 9.776-28.305 7.096-28.305 7.096s-2.68-18.528 7.096-28.304 28.304-7.096 28.304-7.096 2.68 18.53-7.096 28.305z"/><path fill="#31415D" d="M49.23 100.303c0 .372.142.744.426 1.027.568.568 1.487.568 2.055 0 2.112-2.11 1.977-4.417 1.863-6.27-.108-1.823-.115-2.91 1.017-4.042 1.132-1.132 2.22-1.125 4.042-1.017 1.853.112 4.16.25 6.27-1.862.567-.568.566-1.488 0-2.055-.57-.567-1.49-.567-2.056 0-1.132 1.132-2.218 1.125-4.04 1.016-1.854-.112-4.16-.25-6.27 1.86-2.112 2.112-1.975 4.418-1.863 6.27.105 1.824.114 2.91-1.017 4.043-.284.286-.426.658-.426 1.03z"/></svg>