<svg xmlns="http://www.w3.org/2000/svg" width="178.89" height="271.77" viewBox="0 0 178.89 271.77"><path fill="none" stroke="#BECA00" stroke-miterlimit="10" d="M56.732 86.327v26.666"/><path fill="#FFF" stroke="#31415D" stroke-width="2.5" stroke-linecap="round" stroke-linejoin="round" stroke-miterlimit="10" d="M152.714 210.45l-46.95 29.224L93.847 227.2c-29.203 4.54-46.11-15.286-59.697-31.256-2.894-3.402-5.636-6.607-8.276-9.31L47.84 130.18l76.364-54.738c3.46-1.446 6.824-1.635 9.254-.388 2.07 1.062 3.28 3.06 3.408 5.628.09 1.82.162 4.006.243 6.46.447 13.675 1.195 36.563 7.445 50.062 8.98 19.397 7.4 41.32-4.298 60.378l12.457 12.867z"/><path fill="#076672" stroke="#182A47" stroke-width="2.5" stroke-linecap="round" stroke-linejoin="round" stroke-miterlimit="10" d="M29.32 2.993h80.607c7.768 0 14.096 6.328 14.096 14.092V180.9c0 7.765-6.328 14.093-14.096 14.093H29.32c-7.785 0-14.097-6.328-14.097-14.092V17.086c0-7.764 6.312-14.092 14.096-14.092z"/><path fill="#FFF" stroke="#31415D" stroke-width="2.5" stroke-linecap="round" stroke-linejoin="round" stroke-miterlimit="10" d="M25.16 22.672h88.91v139.726H25.16zM69.607 172.36c3.257 0 5.9 2.652 5.9 5.9 0 3.257-2.643 5.91-5.9 5.91-3.257 0-5.9-2.653-5.9-5.91 0-3.248 2.643-5.9 5.9-5.9z"/><path fill="#FFF" stroke="#31415D" stroke-width="2.5" stroke-linecap="round" stroke-linejoin="round" stroke-miterlimit="10" d="M24.517 95.122l1.007-1.007c3.646-3.646 3.646-9.612 0-13.257l-6.583-6.583c-3.645-3.646-9.61-3.646-13.256 0l-1.007 1.007c-3.646 3.646-3.646 9.612 0 13.257l6.583 6.582c3.645 3.646 9.61 3.646 13.257 0z"/><path fill="#FFF" stroke="#31415D" stroke-width="2.5" stroke-linecap="round" stroke-linejoin="round" stroke-miterlimit="10" d="M24.517 120.847l1.007-1.007c3.646-3.646 3.646-9.612 0-13.257L18.94 100c-3.645-3.646-9.61-3.646-13.256 0l-1.007 1.007c-3.646 3.646-3.646 9.612 0 13.257l6.583 6.583c3.645 3.646 9.61 3.646 13.257 0z"/><path fill="#FFF" stroke="#31415D" stroke-width="2.5" stroke-linecap="round" stroke-linejoin="round" stroke-miterlimit="10" d="M24.517 146.57l1.007-1.006c3.646-3.646 3.646-9.612 0-13.257l-6.583-6.583c-3.645-3.646-9.61-3.646-13.256 0l-1.007 1.007c-3.646 3.647-3.646 9.613 0 13.258l6.583 6.583c3.645 3.647 9.61 3.647 13.257 0z"/><path fill="#FFF" stroke="#31415D" stroke-width="2.5" stroke-linecap="round" stroke-linejoin="round" stroke-miterlimit="10" d="M24.517 172.295l1.007-1.007c3.646-3.646 3.646-9.612 0-13.257l-6.583-6.582c-3.645-3.646-9.61-3.646-13.256 0l-1.007 1.007c-3.646 3.646-3.646 9.612 0 13.257l6.583 6.583c3.645 3.646 9.61 3.646 13.257 0z"/><path fill="#076672" stroke="#182A47" stroke-width="2.5" stroke-linecap="round" stroke-linejoin="round" stroke-miterlimit="10" d="M118.166 269.062l55.038-36.708c3.882-2.59 4.94-7.883 2.35-11.765l-7.936-11.9c-2.59-3.883-7.883-4.94-11.765-2.35l-55.038 36.707c-3.882 2.59-4.94 7.883-2.35 11.765l7.936 11.9c2.59 3.882 7.885 4.94 11.766 2.35z"/><circle fill="#182A47" cx="154.222" cy="218.504" r="2.336"/><circle fill="#FFF" stroke="#FFF" stroke-linecap="round" stroke-linejoin="round" stroke-miterlimit="10" cx="160.681" cy="228.189" r="3.627"/><path fill="none" stroke="#31415D" stroke-width="2.5" stroke-linecap="round" stroke-linejoin="round" stroke-miterlimit="10" d="M114.313 244.994c1.984 2.975-.374 4.548 1.61 7.523s4.343 1.402 6.327 4.377"/><path fill="#B6CC07" stroke="#B6CC07" stroke-linecap="round" stroke-linejoin="round" stroke-miterlimit="10" d="M85.86 118.68c-1.336 0-2.434 1.097-2.434 2.432v10.593c0 1.338 1.09 2.435 2.433 2.435h.1c1.345 0 2.434-1.098 2.434-2.435v-10.593c0-1.335-1.09-2.433-2.433-2.433h-.1zm0 0M52.54 118.68h-.1c-1.345 0-2.434 1.097-2.434 2.432v10.593c0 1.338 1.09 2.435 2.433 2.435h.1c1.345 0 2.434-1.098 2.434-2.435v-10.593c0-1.335-1.097-2.433-2.433-2.433zm0 0M80.475 119.07h-22.54v16.72c0 1.235 1.012 2.23 2.236 2.23h2.393v5.728c0 1.335 1.09 2.433 2.433 2.433h.102c1.335 0 2.433-1.088 2.433-2.432v-5.727h3.345v5.728c0 1.335 1.09 2.433 2.435 2.433h.1c1.346 0 2.435-1.088 2.435-2.432v-5.727h2.39c1.235 0 2.24-.994 2.24-2.23v-16.72zm0 16.72M63.593 106.98l.747-.34c1.473-.604 3.124-.944 4.86-.944 1.745 0 3.394.34 4.866.943l.75.34c3.42 1.676 5.735 4.84 5.735 8.466 0 .222-.016.442-.034.664H57.89c-.015-.222-.033-.442-.033-.664 0-3.624 2.314-6.79 5.736-8.467z"/><path fill="#182A47" d="M73.963 112.223c.603 0 1.09-.486 1.09-1.09 0-.605-.487-1.08-1.09-1.08-.603 0-1.09.476-1.09 1.08 0 .604.487 1.09 1.09 1.09zM64.446 112.223c.603 0 1.09-.486 1.09-1.09 0-.605-.487-1.08-1.09-1.08-.606 0-1.09.476-1.09 1.08 0 .604.484 1.09 1.09 1.09z"/><path fill="none" stroke="#B6CC07" stroke-linecap="round" stroke-linejoin="round" stroke-miterlimit="10" d="M76.593 103.074l-2.36 3.617M61.807 103.074l2.362 3.617"/><g><path fill="none" stroke="#31415D" stroke-width="2.5" stroke-linecap="round" stroke-linejoin="round" stroke-miterlimit="10" d="M58.792 12.204c2.705 0 2.705 2.835 5.41 2.835 2.707 0 2.707-2.836 5.415-2.836 2.71 0 2.71 2.835 5.418 2.835 2.71 0 2.71-2.836 5.418-2.836"/></g><path fill="#BECA00" stroke="#BECA00" stroke-linecap="round" stroke-linejoin="round" stroke-miterlimit="10" d="M75.427 47.807c1.592-1.704 2.67-4.07 2.374-6.43-2.292.083-5.072 1.347-6.718 3.05-1.476 1.51-2.768 3.92-2.422 6.233 2.558.174 5.173-1.15 6.767-2.853zM80.31 64.1c-.048-5.29 4.19-7.83 4.376-7.952-2.38-3.592-6.09-4.083-7.412-4.14-3.16-.33-6.16 1.914-7.762 1.914-1.597 0-4.068-1.87-6.687-1.82-3.444.058-6.617 2.064-8.386 5.242-3.578 6.394-.918 15.866 2.568 21.05 1.705 2.54 3.733 5.388 6.398 5.285 2.572-.104 3.54-1.71 6.645-1.71 3.106 0 3.974 1.71 6.69 1.658 2.764-.05 4.513-2.588 6.203-5.135 1.955-2.944 2.76-5.795 2.807-5.94-.06-.034-5.383-2.128-5.44-8.453zm0 0"/><path fill="none" stroke="#31415D" stroke-width="2.5" stroke-linecap="round" stroke-linejoin="round" stroke-miterlimit="10" d="M274.243 70.072l70.71-70.71"/></svg>