<svg xmlns="http://www.w3.org/2000/svg" width="148.511" height="255.611" viewBox="0 0 148.511 255.611"><path fill="#066672" stroke="#182A47" stroke-width="1.3" stroke-linecap="round" stroke-linejoin="round" stroke-miterlimit="10" d="M22.39 2.983h105.032c10.122 0 18.367 8.245 18.367 18.362v213.452c0 10.116-8.246 18.362-18.368 18.362H22.39c-10.143 0-18.367-8.247-18.367-18.363V21.345c0-10.116 8.225-18.362 18.367-18.362z"/><path fill="#FFF" stroke="#31415D" stroke-width="1.3" stroke-linecap="round" stroke-linejoin="round" stroke-miterlimit="10" d="M16.973 28.625H132.82v182.062H16.972zM74.886 223.668c4.244 0 7.688 3.456 7.688 7.688 0 4.244-3.444 7.7-7.688 7.7s-7.688-3.456-7.688-7.7c0-4.233 3.444-7.688 7.688-7.688z"/><path fill="#BDCA00" stroke="#BDCA00" stroke-linecap="round" stroke-linejoin="round" stroke-miterlimit="10" d="M82.71 62.598c2.114-2.26 3.543-5.4 3.152-8.53-3.043.108-6.732 1.785-8.916 4.047-1.96 2.002-3.673 5.2-3.214 8.27 3.394.23 6.863-1.528 8.98-3.787zm6.482 21.622c-.065-7.02 5.558-10.39 5.806-10.553-3.16-4.766-8.082-5.42-9.836-5.492-4.19-.44-8.172 2.54-10.3 2.54-2.12 0-5.398-2.48-8.874-2.415-4.57.075-8.78 2.737-11.13 6.955-4.746 8.484-1.215 21.053 3.41 27.935 2.262 3.37 4.954 7.148 8.49 7.012 3.413-.136 4.7-2.27 8.817-2.27 4.12 0 5.273 2.27 8.877 2.2 3.667-.067 5.987-3.433 8.23-6.813 2.594-3.908 3.664-7.69 3.725-7.882-.077-.047-7.14-2.825-7.215-11.218zm0 0"/><path fill="#B6CC09" stroke="#B6CC09" stroke-width="1.3" stroke-linecap="round" stroke-linejoin="round" stroke-miterlimit="10" d="M93.628 151.35c-1.6 0-2.917 1.317-2.917 2.918v12.7c0 1.604 1.307 2.92 2.918 2.92h.123c1.612 0 2.918-1.316 2.918-2.92v-12.7c0-1.6-1.306-2.917-2.917-2.917h-.122zm0 0M53.684 151.35h-.123c-1.61 0-2.916 1.317-2.916 2.918v12.7c0 1.604 1.306 2.92 2.917 2.92h.124c1.61 0 2.917-1.316 2.917-2.92v-12.7c0-1.6-1.315-2.917-2.916-2.917zm0 0M87.173 151.82H60.15v20.045c0 1.48 1.213 2.674 2.68 2.674H65.7v6.865c0 1.6 1.306 2.917 2.917 2.917h.123c1.6 0 2.917-1.306 2.917-2.917v-6.866h4.01v6.865c0 1.6 1.305 2.917 2.92 2.917h.12c1.613 0 2.92-1.306 2.92-2.917v-6.866h2.864c1.48 0 2.684-1.194 2.684-2.675V151.82zm0 20.045M66.934 137.324l.896-.407c1.765-.723 3.745-1.13 5.826-1.13 2.092 0 4.07.406 5.834 1.13l.898.407c4.1 2.01 6.876 5.805 6.876 10.15 0 .267-.02.53-.042.798H60.097c-.018-.266-.04-.53-.04-.797 0-4.345 2.774-8.14 6.877-10.15z"/><path fill="#182A47" d="M79.366 143.61c.723 0 1.306-.582 1.306-1.306 0-.726-.582-1.295-1.306-1.295-.723 0-1.306.568-1.306 1.294 0 .724.583 1.306 1.306 1.306zM67.956 143.61c.723 0 1.306-.582 1.306-1.306 0-.726-.582-1.295-1.306-1.295-.726 0-1.306.568-1.306 1.294 0 .724.58 1.306 1.306 1.306z"/><path fill="none" stroke="#B6CC09" stroke-width="1.3" stroke-linecap="round" stroke-linejoin="round" stroke-miterlimit="10" d="M82.52 132.642l-2.832 4.337M64.792 132.642l2.832 4.337"/><g><path fill="none" stroke="#31415D" stroke-width="1.3" stroke-linecap="round" stroke-linejoin="round" stroke-miterlimit="10" d="M62.825 15.16c2.705 0 2.705 2.834 5.41 2.834 2.707 0 2.707-2.835 5.415-2.835 2.71 0 2.71 2.834 5.418 2.834 2.71 0 2.71-2.835 5.418-2.835"/></g></svg>