<svg xmlns="http://www.w3.org/2000/svg" xmlns:xlink="http://www.w3.org/1999/xlink" width="286.661" height="181.667" viewBox="0 0 286.661 181.667"><circle fill="#076672" stroke="#31415D" stroke-width="2.5" stroke-linecap="round" stroke-linejoin="round" stroke-miterlimit="10" cx="225.238" cy="161.834" r="17.211"/><path fill="#B6CC07" stroke="#B6CC07" stroke-width="3" stroke-miterlimit="10" d="M190.463 43.526L160.836 17.75c-5.434-4.425-13.428-3.598-17.84 1.846l-24.258 31.438 71.725-7.508zm1.544-7.545"/><path fill="#B6CC07" stroke="#B6CC07" stroke-width="3" stroke-miterlimit="10" d="M255.362 43.404l-42.96-36.34c-5.436-4.39-13.4-3.55-17.8 1.88l-34.816 44.465 95.576-10.006zm-2.024-.25"/><circle fill="#076672" stroke="#31415D" stroke-width="2.5" stroke-linecap="round" stroke-linejoin="round" stroke-miterlimit="10" cx="144.38" cy="161.834" r="17.211"/><circle fill="#FFF" stroke="#31415D" stroke-width="2.5" stroke-linecap="round" stroke-linejoin="round" stroke-miterlimit="10" cx="144.38" cy="161.834" r="7.428"/><circle fill="#FFF" stroke="#31415D" stroke-width="2.5" stroke-linecap="round" stroke-linejoin="round" stroke-miterlimit="10" cx="225.238" cy="161.834" r="7.428"/><path fill="#076672" stroke="#31415D" stroke-width="2.5" stroke-linecap="round" stroke-linejoin="round" stroke-miterlimit="10" d="M94.21 43.3h175.835c9.42 0 16.384 8.774 14.244 17.948l-16.672 71.466c-1.544 6.62-7.446 11.304-14.244 11.304h-135.67"/><path fill="none" stroke="#B6CC07" stroke-width="3" stroke-linecap="round" stroke-linejoin="round" stroke-miterlimit="10" d="M64.526 68.08c-3.45 0-3.45-2.27-6.897-2.27-3.448 0-3.448 2.27-6.894 2.27-3.45 0-3.45-2.27-6.9-2.27s-3.45 2.27-6.903 2.27-3.452-2.27-6.904-2.27M71.406 93.93c-4.717 0-4.717-2.834-9.435-2.834-4.716 0-4.716 2.835-9.434 2.835-4.72 0-4.72-2.834-9.437-2.834-4.72 0-4.72 2.835-9.44 2.835s-4.72-2.834-9.438-2.834c-4.722 0-4.722 2.835-9.444 2.835s-4.722-2.834-9.444-2.834M76.2 118.307c-3.448 0-3.448-2.268-6.896-2.268-3.447 0-3.447 2.267-6.893 2.267-3.45 0-3.45-2.268-6.898-2.268-3.452 0-3.452 2.267-6.904 2.267s-3.452-2.268-6.904-2.268"/><defs><path id="a" d="M94.21 43.3h175.835c9.42 0 16.384 8.774 14.244 17.948l-16.672 71.466c-1.544 6.62-7.446 11.304-14.244 11.304h-135.67"/></defs><clipPath id="b"><use xlink:href="#a" overflow="visible"/></clipPath><g clip-path="url(#b)"><path fill="none" d="M105.093 75.942c10.862 0 10.862 5.453 21.725 5.453 10.863 0 10.863-5.453 21.725-5.453 10.864 0 10.864 5.453 21.728 5.453 10.865 0 10.865-5.453 21.73-5.453 10.863 0 10.863 5.453 21.727 5.453 10.865 0 10.865-5.453 21.73-5.453s10.865 5.453 21.73 5.453c10.867 0 10.867-5.453 21.733-5.453"/><path fill="#FFF" d="M257.19 85.67c-6.447 0-9.814-1.69-12.784-3.18-2.53-1.27-4.53-2.274-8.95-2.274-4.42 0-6.417 1.003-8.947 2.273-2.97 1.49-6.338 3.18-12.783 3.18-6.445 0-9.812-1.69-12.782-3.18-2.53-1.27-4.526-2.273-8.945-2.273-4.42 0-6.418 1.003-8.948 2.273-2.97 1.49-6.336 3.18-12.78 3.18s-9.812-1.69-12.782-3.18c-2.53-1.27-4.528-2.273-8.948-2.273-4.42 0-6.416 1.003-8.944 2.272-2.97 1.49-6.337 3.18-12.78 3.18-6.445 0-9.81-1.69-12.78-3.18-2.53-1.27-4.526-2.273-8.945-2.273-2.36 0-4.275-1.914-4.275-4.275s1.914-4.275 4.275-4.275c6.445 0 9.81 1.69 12.78 3.18 2.53 1.27 4.526 2.273 8.944 2.273 4.42 0 6.416-1.003 8.944-2.272 2.97-1.49 6.338-3.18 12.782-3.18 6.445 0 9.812 1.69 12.783 3.18 2.53 1.27 4.526 2.272 8.945 2.272s6.417-1.003 8.945-2.272c2.97-1.49 6.338-3.18 12.783-3.18 6.445 0 9.812 1.69 12.782 3.18 2.53 1.27 4.526 2.272 8.945 2.272 4.42 0 6.418-1.003 8.948-2.273 2.97-1.49 6.337-3.18 12.782-3.18 6.446 0 9.813 1.69 12.783 3.18 2.53 1.27 4.53 2.273 8.95 2.273 4.42 0 6.418-1.003 8.948-2.273 2.97-1.49 6.337-3.18 12.783-3.18 2.36 0 4.274 1.913 4.274 4.274s-1.914 4.276-4.275 4.276c-4.42 0-6.42 1.003-8.95 2.273-2.97 1.49-6.336 3.18-12.78 3.18z"/><g><path fill="none" d="M105.093 104.435c10.862 0 10.862 5.453 21.725 5.453 10.863 0 10.863-5.453 21.725-5.453 10.864 0 10.864 5.453 21.728 5.453 10.865 0 10.865-5.453 21.73-5.453 10.863 0 10.863 5.453 21.727 5.453 10.865 0 10.865-5.453 21.73-5.453s10.865 5.453 21.73 5.453c10.867 0 10.867-5.453 21.733-5.453"/><path fill="#FFF" d="M257.19 114.163c-6.447 0-9.814-1.69-12.784-3.18-2.53-1.27-4.53-2.274-8.95-2.274-4.42 0-6.417 1.002-8.947 2.272-2.97 1.49-6.338 3.18-12.783 3.18-6.445 0-9.812-1.69-12.782-3.18-2.53-1.27-4.526-2.272-8.945-2.272-4.42 0-6.418 1.003-8.948 2.273-2.97 1.49-6.336 3.18-12.78 3.18s-9.812-1.69-12.782-3.18c-2.53-1.27-4.528-2.273-8.948-2.273-4.42 0-6.416 1.003-8.944 2.272-2.97 1.49-6.337 3.18-12.78 3.18-6.445 0-9.81-1.69-12.78-3.18-2.53-1.27-4.526-2.272-8.945-2.272-2.36 0-4.275-1.914-4.275-4.275s1.914-4.275 4.275-4.275c6.445 0 9.81 1.69 12.78 3.18 2.53 1.27 4.526 2.273 8.944 2.273 4.42 0 6.416-1.003 8.944-2.272 2.97-1.49 6.338-3.18 12.782-3.18 6.445 0 9.812 1.69 12.783 3.18 2.53 1.27 4.526 2.273 8.945 2.273s6.417-1.003 8.945-2.272c2.97-1.49 6.338-3.18 12.783-3.18 6.445 0 9.812 1.69 12.782 3.18 2.53 1.27 4.526 2.273 8.945 2.273 4.42 0 6.418-1.003 8.948-2.273 2.97-1.49 6.337-3.18 12.782-3.18 6.446 0 9.813 1.69 12.783 3.18 2.53 1.27 4.53 2.273 8.95 2.273 4.42 0 6.418-1.003 8.948-2.273 2.97-1.49 6.337-3.18 12.783-3.18 2.36 0 4.274 1.913 4.274 4.274s-1.914 4.275-4.275 4.275c-4.42 0-6.42 1.002-8.95 2.272-2.97 1.49-6.336 3.18-12.78 3.18z"/></g></g><path fill="none" stroke="#31415D" stroke-width="2.5" stroke-linecap="round" stroke-linejoin="round" stroke-miterlimit="10" d="M94.21 43.3h175.835c9.42 0 16.384 8.774 14.244 17.948l-16.672 71.466c-1.544 6.62-7.446 11.304-14.244 11.304h-135.67"/><path fill="#FFF" stroke="#31415D" stroke-width="2.5" stroke-linecap="round" stroke-linejoin="round" stroke-miterlimit="10" d="M78.602 21.743l-14.975-7.438c-2.956-1.468-4.162-5.055-2.694-8.01 1.468-2.957 5.055-4.164 8.01-2.696l20 9.93c1.59.79 2.748 2.25 3.157 3.978l28.793 126.727-12.306-.218L81.76 25.72c-.41-1.73-1.566-3.186-3.158-3.977z"/></svg>