<svg xmlns="http://www.w3.org/2000/svg" width="333.333" height="218.275" viewBox="0 0 333.333 218.275"><g fill="#B6CC09" stroke="#414140" stroke-linecap="round" stroke-linejoin="round" stroke-miterlimit="10"><path d="M257.78 66.722h31.258c9.05 0 16.39-7.338 16.39-16.39 0-7.774-5.417-14.28-12.682-15.96-.15-16.453-13.53-29.744-30.015-29.744-11.318 0-21.172 6.265-26.286 15.517-1.556-.673-3.27-1.048-5.075-1.048-5.46 0-10.106 3.426-11.942 8.24M262.73 14.12c11.216 0 20.423 9.122 20.524 20.336"/></g><path fill="#B6CC09" stroke="#414140" stroke-linecap="round" stroke-linejoin="round" stroke-miterlimit="10" d="M257.78 66.722c-8.914-16.395-22.227-30.05-38.353-39.385-14.895-8.623-32.19-13.56-50.638-13.56-55.904 0-101.223 45.318-101.223 101.22 0 55.904 45.32 101.223 101.222 101.223 55.902 0 101.22-45.32 101.22-101.222 0-17.48-4.43-33.927-12.23-48.276z"/><g fill="#B6CC09" stroke="#414140" stroke-linecap="round" stroke-linejoin="round" stroke-miterlimit="10"><path d="M18.288 48.866c-7.264 1.68-12.68 8.187-12.68 15.962 0 9.05 7.336 16.39 16.388 16.39H88.74c10.18 0 18.432-8.253 18.432-18.433 0-8.946-6.374-16.4-14.827-18.077-.82-6.273-6.183-11.117-12.68-11.117-1.802 0-3.518.376-5.074 1.05-5.114-9.252-14.967-15.518-26.286-15.518-16.487 0-29.867 13.292-30.016 29.744"/><path d="M45.436 28.87c-2.35.34-4.656 1.09-6.81 2.252-6.77 3.66-10.668 10.65-10.753 17.88"/></g><g fill="#B6CC09" stroke="#414140" stroke-linecap="round" stroke-linejoin="round" stroke-miterlimit="10"><path d="M217.053 77.724c-1.473-8.99-22.513-16.118-48.264-16.118s-46.792 7.128-48.265 16.118h-.09V152.27h.09c1.473 8.987 22.515 16.117 48.264 16.117s46.79-7.13 48.263-16.118h.09V77.724h-.09z"/><path d="M168.79 144.212c-26.707 0-48.356-7.668-48.356-17.126v25.185h.09c1.474 8.99 22.516 16.12 48.265 16.12s46.79-7.13 48.263-16.12h.09v-25.184c0 9.458-21.648 17.126-48.354 17.126z"/><path d="M120.434 126.08v1.006c0-.338.036-.673.09-1.007h-.09zM217.053 126.08c.054.333.09.668.09 1.006v-1.007h-.09z"/><path d="M168.79 120.034c-26.707 0-48.356-7.668-48.356-17.126v25.185h.09C122 137.08 143.04 144.21 168.79 144.21s46.79-7.13 48.263-16.117h.09v-25.185c0 9.458-21.648 17.126-48.354 17.126zM120.434 101.9v1.008c0-.338.036-.673.09-1.007h-.09zM217.053 101.9c.054.335.09.67.09 1.008V101.9h-.09z"/><ellipse cx="168.789" cy="78.732" rx="48.355" ry="17.126"/><g><path d="M168.79 95.857c-26.707 0-48.356-7.668-48.356-17.126v25.186h.09c1.474 8.988 22.516 16.118 48.265 16.118s46.79-7.13 48.263-16.118h.09V78.732c0 9.457-21.648 17.125-48.354 17.125z"/><path d="M120.434 77.724v1.007c0-.337.036-.672.09-1.006h-.09zM217.053 77.724c.054.334.09.67.09 1.007v-1.006h-.09z"/></g></g><g fill="#B6CC09" stroke="#414140" stroke-linecap="round" stroke-linejoin="round" stroke-miterlimit="10"><path d="M257.5 134.362c-15.73 0-28.482 12.753-28.482 28.482 0 .43.11.834.125 1.265-8.344 2.906-14.366 10.763-14.366 20.095 0 11.793 9.568 21.362 21.362 21.362h71.204c11.793 0 21.362-9.568 21.362-21.362 0-11.793-9.568-21.362-21.362-21.362-.438 0-.848.097-1.273.125-2.906-8.344-10.756-14.366-20.088-14.366-1.286 0-2.53.16-3.748.376-4.882-8.678-14.067-14.616-24.734-14.616z"/><path d="M229.143 164.11c-8.344 2.906-14.366 10.763-14.366 20.095 0 11.793 9.568 21.362 21.362 21.362h71.204c11.793 0 21.362-9.568 21.362-21.362 0-11.793-9.568-21.362-21.362-21.362-.438 0-.848.097-1.273.125-2.906-8.344-10.756-14.366-20.088-14.366-1.286 0-2.53.16-3.748.376-4.88-8.678-14.067-14.617-24.734-14.617-15.73 0-28.482 12.754-28.482 28.483 0 .432.11.835.125 1.266"/><path d="M305.427 173.705c.333-.022.664-.058.994-.1 6.39.182 11.53 5.435 11.53 11.866"/></g></svg>