<svg xmlns="http://www.w3.org/2000/svg" width="169.6" height="252" viewBox="0 0 169.6 252"><g stroke="#31415D" stroke-width="1.3" stroke-linecap="round" stroke-linejoin="round" stroke-miterlimit="10"><path fill="#FFF" d="M86.19 7.24h33.173v122.696H86.19z"/><path fill="none" d="M119.363 23.577h-15.83M119.363 34.173h-7.316M119.363 44.77h-15.83M119.363 55.365h-7.316M119.363 65.892h-15.83M119.363 76.488h-7.316M119.363 87.084h-15.83"/></g><g stroke="#31415D" stroke-width="1.3" stroke-linecap="round" stroke-linejoin="round" stroke-miterlimit="10"><path fill="#F0F0F0" d="M37.664 64.734L53.48 34.456l15.817 30.278"/><path fill="#B6CC09" d="M37.664 64.734h31.633v93.434H37.664z"/><path fill="#FFF" d="M37.664 136.51h31.633v21.658H37.664zM48.097 64.734v71.775M58.91 64.734v71.775M48.097 44.76H58.91"/><path fill="#B6CC09" d="M58.91 44.76H48.096v-.003l5.387-10.305 5.378 10.305"/></g><path fill="#066672" stroke="#31415D" stroke-width="1.3" stroke-linecap="round" stroke-linejoin="round" stroke-miterlimit="10" d="M143.846 137h-36.653c-11.88 0-21.548 9.667-21.548 21.55v33.815c0 11.88 9.667 21.547 21.55 21.547h36.65c11.883 0 21.55-9.666 21.55-21.548v-33.816c0-11.88-9.667-21.547-21.55-21.547zm10.21 55.364c0 5.638-4.572 10.21-10.21 10.21h-36.652c-5.638 0-10.21-4.572-10.21-10.21V158.55c0-5.64 4.57-10.21 10.21-10.21h36.652c5.638 0 10.21 4.57 10.21 10.21v33.814z"/><path fill="#066672" stroke="#31415D" stroke-width="1.3" stroke-linecap="round" stroke-linejoin="round" stroke-miterlimit="10" d="M129.762 247.024H26.552c-7.795 0-14.173-6.378-14.173-14.173V101.183h131.555V232.85c0 7.796-6.378 14.174-14.173 14.174z"/><path fill="none" stroke="#FFF" stroke-width="1.3" stroke-linecap="round" stroke-linejoin="round" stroke-miterlimit="10" d="M31 137.192c0 4.987-3.402 4.987-3.402 9.974 0 4.988 3.402 4.988 3.402 9.975 0 4.987-3.402 4.987-3.402 9.974 0 4.986 3.402 4.986 3.402 9.973 0 4.988-3.402 4.988-3.402 9.975 0 4.99 3.402 4.99 3.402 9.98 0 4.987-3.402 4.987-3.402 9.975 0 4.99 3.402 4.99 3.402 9.983s-3.402 4.99-3.402 9.983"/><path fill="#066672" stroke="#31415D" stroke-width="1.3" stroke-linecap="round" stroke-linejoin="round" stroke-miterlimit="10" d="M144.08 113.256H12.234c-3.32 0-6.036-2.716-6.036-6.036 0-3.32 2.715-6.036 6.035-6.036H144.08c3.32 0 6.035 2.716 6.035 6.036 0 3.32-2.716 6.036-6.036 6.036z"/></svg>