<svg xmlns="http://www.w3.org/2000/svg" width="165.29" height="253.802" viewBox="0 0 165.29 253.802"><g stroke="#31415D" stroke-width="2.5" stroke-linecap="round" stroke-linejoin="round" stroke-miterlimit="10"><path fill="#FFF" d="M98.694 2.43h33.172V125.13H98.694z"/><path fill="none" d="M131.866 18.768h-15.83M129.72 29.364h-7.315M131.866 39.96h-15.83M129.72 50.556h-7.315M131.866 61.084h-15.83M129.72 71.68h-7.315M131.866 82.276h-15.83"/></g><g stroke-linecap="round" stroke-linejoin="round" stroke-miterlimit="10"><path fill="#F0F0F0" stroke="#192947" stroke-width="3" d="M58.672 46.697L74.488 16.42l15.816 30.277"/><path fill="#B6CC07" stroke="#31415D" stroke-width="2.5" d="M58.672 46.697h31.633v93.434H58.672z"/><path fill="#FFF" stroke="#31415D" stroke-width="2.5" d="M58.672 118.472h31.633v21.66H58.672zM69.105 46.697v71.775M79.916 46.697v71.775M69.105 26.724h10.81"/><path fill="#B6CC07" stroke="#31415D" stroke-width="2.5" d="M79.916 26.724h-10.81v-.005l5.385-10.305 5.38 10.304"/></g><g stroke-linecap="round" stroke-linejoin="round" stroke-miterlimit="10"><path fill="#F0F0F0" stroke="#192947" stroke-width="3" d="M50.39 101.345l-15.817 30.278-15.816-30.278"/><path fill="#FFF" stroke="#31415D" stroke-width="2.5" d="M18.757 29.57H50.39v71.775H18.757zM39.957 101.345V29.57M29.145 101.345V29.57M39.957 121.318H29.145"/><path fill="#076672" stroke="#31415D" stroke-width="2.5" d="M29.145 121.318h10.812v.004l-5.387 10.305-5.378-10.305"/><path fill="#B6CC07" stroke="#31415D" stroke-width="2.5" d="M18.757 29.57H50.39V14.255c0-3.504-2.84-6.344-6.344-6.344H25.1c-3.503 0-6.343 2.842-6.343 6.345V29.57z"/></g><path fill="#076672" stroke="#31415D" stroke-width="2.5" stroke-linecap="round" stroke-linejoin="round" stroke-miterlimit="10" d="M104.35 218.552c-11.883 0-21.55-9.666-21.55-21.547v-47.99c0-11.88 9.667-21.547 21.548-21.547H141c11.883 0 21.55 9.666 21.55 21.547v47.99c0 11.88-9.667 21.547-21.55 21.547h-36.65z"/><path fill="#FFF" stroke="#192947" stroke-width="3" stroke-linecap="round" stroke-linejoin="round" stroke-miterlimit="10" d="M94.14 197.004v-47.99c0-5.637 4.57-10.208 10.208-10.208H141c5.64 0 10.21 4.57 10.21 10.21v47.988c0 5.638-4.57 10.21-10.21 10.21h-36.65c-5.64 0-10.21-4.57-10.21-10.21z"/><path fill="#076672" stroke="#31415D" stroke-width="2.5" stroke-linecap="round" stroke-linejoin="round" stroke-miterlimit="10" d="M126.916 251.664H23.706c-7.794 0-14.172-6.378-14.172-14.173V91.65H141.09v145.84c0 7.796-6.378 14.174-14.174 14.174z"/><path fill="none" stroke="#FFF" stroke-width="2.5" stroke-linecap="round" stroke-linejoin="round" stroke-miterlimit="10" d="M23.53 125.475c0 2.9-2.27 2.9-2.27 5.803 0 2.904 2.27 2.904 2.27 5.808 0 2.906-2.27 2.906-2.27 5.812s2.27 2.906 2.27 5.812M23.53 175.474c0 3.254-2.27 3.254-2.27 6.507 0 3.256 2.27 3.256 2.27 6.51 0 3.256-2.27 3.256-2.27 6.51 0 3.256 2.27 3.256 2.27 6.51 0 3.257-2.27 3.257-2.27 6.513 0 3.254 2.27 3.254 2.27 6.508 0 3.258-2.27 3.258-2.27 6.515 0 3.26 2.27 3.26 2.27 6.518 0 3.26-2.27 3.26-2.27 6.518"/><path fill="#076672" stroke="#31415D" stroke-width="2.5" stroke-linecap="round" stroke-linejoin="round" stroke-miterlimit="10" d="M141.234 103.723H9.39c-3.32 0-6.036-2.716-6.036-6.036 0-3.32 2.716-6.036 6.036-6.036h131.844c3.32 0 6.036 2.717 6.036 6.037s-2.716 6.036-6.036 6.036z"/></svg>