<svg xmlns="http://www.w3.org/2000/svg" width="287.352" height="243.798" viewBox="0 0 287.352 243.798"><path fill="#FFF" stroke="#31415D" stroke-width="2.5" stroke-linecap="round" stroke-linejoin="round" stroke-miterlimit="10" d="M249.797 57.643c7.813 0 14.147-6.334 14.147-14.147 0-6.712-4.676-12.328-10.946-13.78-.128-14.2-11.678-25.673-25.91-25.673-9.77 0-18.276 5.408-22.69 13.394-1.343-.58-2.824-.905-4.38-.905-5.61 0-10.237 4.182-10.946 9.596-7.297 1.447-12.8 7.882-12.8 15.604 0 8.787 7.124 15.91 15.91 15.91h57.615z"/><path fill="#FFF" stroke="#B6CC07" stroke-width="2.5" stroke-linecap="round" stroke-linejoin="round" stroke-miterlimit="10" d="M227.09 12.236c9.68 0 17.63 7.875 17.715 17.555"/><path fill="none" stroke="#31415D" stroke-width="2.5" stroke-linecap="round" stroke-linejoin="round" stroke-miterlimit="10" d="M133.29 182.76v19.022c0 4.74-3.843 8.582-8.583 8.582h-19.992"/><circle fill="#FFF" stroke="#31415D" stroke-width="2.5" stroke-linecap="round" stroke-linejoin="round" stroke-miterlimit="10" cx="107.446" cy="210.365" r="8.99"/><path fill="none" stroke="#31415D" stroke-width="2.5" stroke-linecap="round" stroke-linejoin="round" stroke-miterlimit="10" d="M158.706 182.76v19.022c0 4.74 3.842 8.582 8.582 8.582h19.992"/><circle fill="#FFF" stroke="#31415D" stroke-width="2.5" stroke-linecap="round" stroke-linejoin="round" stroke-miterlimit="10" cx="184.549" cy="210.365" r="8.99"/><path fill="none" stroke="#31415D" stroke-width="2.5" stroke-linecap="round" stroke-linejoin="round" stroke-miterlimit="10" d="M147.7 182.76c0 4.274-3.403 4.274-3.403 8.547 0 4.275 3.402 4.275 3.402 8.55 0 4.272-3.403 4.272-3.403 8.545 0 4.276 3.402 4.276 3.402 8.552s-3.403 4.276-3.403 8.552"/><circle fill="#FFF" stroke="#31415D" stroke-width="2.5" stroke-linecap="round" stroke-linejoin="round" stroke-miterlimit="10" cx="145.998" cy="231.055" r="8.99"/><circle fill="#076672" stroke="#31415D" stroke-width="2.5" stroke-linecap="round" stroke-linejoin="round" stroke-miterlimit="10" cx="145.998" cy="99.315" r="87.376"/><path fill="#FFF" stroke="#31415D" stroke-width="2.5" stroke-linecap="round" stroke-linejoin="round" stroke-miterlimit="10" d="M76.9 70.156c8.786 0 15.91-7.123 15.91-15.91 0-7.723-5.503-14.158-12.8-15.605-.71-5.414-5.337-9.595-10.945-9.595-1.557 0-3.037.324-4.38.905-4.416-7.986-12.922-13.394-22.692-13.394-14.23 0-25.78 11.473-25.91 25.674C9.814 43.68 5.14 49.297 5.14 56.01c0 7.812 6.334 14.146 14.147 14.146H76.9z"/><path fill="#FFF" stroke="#B6CC07" stroke-width="2.5" stroke-linecap="round" stroke-linejoin="round" stroke-miterlimit="10" d="M39.52 24.968c-2.03.293-4.02.94-5.88 1.945-5.845 3.16-9.21 9.192-9.282 15.433M51.653 27.598c-1.874-1.202-3.922-2.02-6.034-2.453"/><g fill="#B6CC07" stroke="#31415D" stroke-width="2.5" stroke-linecap="round" stroke-linejoin="round" stroke-miterlimit="10"><path d="M187.66 67.14c-1.27-7.76-19.433-13.912-41.662-13.912s-40.39 6.153-41.662 13.913h-.078v64.352h.078c1.27 7.758 19.435 13.913 41.662 13.913s40.39-6.155 41.662-13.913h.078V67.14h-.078z"/><path d="M145.998 124.533c-23.053 0-41.74-6.62-41.74-14.783v21.74h.078c1.27 7.758 19.435 13.913 41.662 13.913s40.39-6.155 41.662-13.913h.078v-21.74c0 8.164-18.688 14.783-41.74 14.783zM104.258 108.88v.87c0-.29.03-.58.078-.87h-.078zM187.66 108.88c.047.29.078.578.078.87v-.87h-.078z"/><path d="M145.998 103.663c-23.053 0-41.74-6.62-41.74-14.783v21.74h.078c1.27 7.758 19.435 13.913 41.662 13.913s40.39-6.155 41.662-13.913h.078V88.88c0 8.164-18.688 14.783-41.74 14.783z"/><path d="M104.258 88.01v.87c0-.29.03-.58.078-.87h-.078zM187.66 88.01c.047.29.078.578.078.87v-.87h-.078z"/><ellipse cx="145.998" cy="68.01" rx="41.74" ry="14.783"/><g><path d="M145.998 82.793c-23.053 0-41.74-6.62-41.74-14.783v21.74h.078c1.27 7.758 19.435 13.913 41.662 13.913s40.39-6.155 41.662-13.913h.078V68.01c0 8.164-18.688 14.783-41.74 14.783zM104.258 67.14v.87c0-.29.03-.58.078-.87h-.078zM187.66 67.14c.047.29.078.578.078.87v-.87h-.078z"/></g></g><path fill="#FFF" stroke="#31415D" stroke-width="2.5" stroke-linecap="round" stroke-linejoin="round" stroke-miterlimit="10" d="M222.574 116.03c-13.578 0-24.586 11.01-24.586 24.586 0 .372.096.72.108 1.092-7.203 2.51-12.4 9.292-12.4 17.347 0 10.18 8.258 18.44 18.438 18.44H265.6c10.18 0 18.438-8.26 18.438-18.44 0-10.18-8.26-18.44-18.44-18.44-.377 0-.73.085-1.098.11-2.51-7.204-9.286-12.402-17.34-12.402-1.11 0-2.186.138-3.236.324-4.213-7.49-12.143-12.617-21.35-12.617z"/><path fill="#FFF" stroke="#B6CC07" stroke-width="2.5" stroke-linecap="round" stroke-linejoin="round" stroke-miterlimit="10" d="M263.945 149.992c.288-.02.573-.05.858-.087 5.514.157 9.95 4.692 9.95 10.243"/></svg>