<svg xmlns="http://www.w3.org/2000/svg" width="333.333" height="220.804" viewBox="0 0 333.333 220.804"><g fill="#FFF" stroke-width="1.3" stroke-linecap="round" stroke-linejoin="round" stroke-miterlimit="10"><path stroke="#31415D" d="M257.552 67.586h31.26c9.05 0 16.388-7.338 16.388-16.39 0-7.774-5.416-14.28-12.68-15.96-.15-16.453-13.53-29.744-30.017-29.744-11.32 0-21.173 6.265-26.287 15.517-1.556-.674-3.27-1.05-5.075-1.05-5.458 0-10.104 3.427-11.94 8.24"/><path stroke="#B6CC09" d="M262.503 14.983c11.216 0 20.423 9.123 20.524 20.337"/></g><path fill="#066672" stroke="#31415D" stroke-width="1.3" stroke-linecap="round" stroke-linejoin="round" stroke-miterlimit="10" d="M257.552 67.586C248.64 51.19 235.326 37.536 219.2 28.2c-14.895-8.622-32.19-13.56-50.638-13.56-55.903 0-101.222 45.32-101.222 101.222 0 55.903 45.32 101.222 101.222 101.222 55.903 0 101.222-45.32 101.222-101.222 0-17.48-4.432-33.927-12.232-48.276z"/><g fill="#FFF" stroke-width="1.3" stroke-linecap="round" stroke-linejoin="round" stroke-miterlimit="10"><path stroke="#31415D" d="M18.06 49.73c-7.263 1.68-12.68 8.187-12.68 15.963 0 9.05 7.337 16.39 16.39 16.39h66.743c10.18 0 18.432-8.253 18.432-18.433 0-8.946-6.374-16.4-14.827-18.077-.82-6.273-6.183-11.117-12.68-11.117-1.802 0-3.518.375-5.074 1.048-5.115-9.25-14.968-15.517-26.287-15.517-16.487 0-29.868 13.292-30.016 29.743"/><path stroke="#B6CC09" d="M45.21 29.733c-2.35.34-4.657 1.09-6.81 2.253-6.772 3.66-10.67 10.65-10.754 17.88"/></g><g fill="#B6CC09" stroke="#31415D" stroke-width="1.3" stroke-linecap="round" stroke-linejoin="round" stroke-miterlimit="10"><path d="M216.826 78.588c-1.473-8.99-22.513-16.118-48.264-16.118s-46.79 7.128-48.264 16.118h-.09v74.543h.09c1.473 8.988 22.515 16.118 48.264 16.118s46.79-7.13 48.264-16.117h.09V78.588h-.09z"/><path d="M168.562 145.076c-26.706 0-48.355-7.668-48.355-17.126v25.185h.09c1.474 8.988 22.516 16.118 48.265 16.118s46.79-7.13 48.264-16.118h.09V127.95c0 9.458-21.65 17.126-48.354 17.126zM120.207 126.943v1.007c0-.338.036-.673.09-1.007h-.09z"/><path d="M216.826 126.943c.054.334.09.67.09 1.007v-1.007h-.09z"/><path d="M168.562 120.9c-26.706 0-48.355-7.67-48.355-17.127v25.185h.09c1.474 8.988 22.516 16.118 48.265 16.118s46.79-7.13 48.264-16.118h.09v-25.185c0 9.457-21.65 17.126-48.354 17.126zM120.207 102.766v1.007c0-.338.036-.673.09-1.007h-.09z"/><path d="M216.826 102.766c.054.334.09.67.09 1.007v-1.007h-.09z"/><ellipse cx="168.562" cy="79.596" rx="48.355" ry="17.126"/><g><path d="M168.562 96.72c-26.706 0-48.355-7.667-48.355-17.125v25.185h.09c1.474 8.988 22.516 16.118 48.265 16.118s46.79-7.13 48.264-16.118h.09V79.596c0 9.457-21.65 17.125-48.354 17.125zM120.207 78.588v1.007c0-.338.036-.673.09-1.007h-.09zM216.826 78.588c.054.334.09.67.09 1.007v-1.007h-.09z"/></g></g><g fill="#FFF"><path d="M257.273 135.226c-15.73 0-28.482 12.753-28.482 28.482 0 .43.112.834.126 1.265-8.344 2.907-14.366 10.764-14.366 20.096 0 11.792 9.568 21.36 21.362 21.36h71.205c11.793 0 21.362-9.567 21.362-21.36 0-11.794-9.57-21.363-21.363-21.363-.438 0-.848.097-1.273.125-2.906-8.344-10.757-14.366-20.09-14.366-1.285 0-2.53.16-3.747.376-4.882-8.678-14.067-14.616-24.734-14.616z"/><path stroke="#31415D" stroke-width="1.3" stroke-linecap="round" stroke-linejoin="round" stroke-miterlimit="10" d="M228.916 164.973c-8.344 2.907-14.366 10.764-14.366 20.096 0 11.792 9.568 21.36 21.362 21.36h71.205c11.793 0 21.362-9.567 21.362-21.36 0-11.794-9.57-21.363-21.363-21.363-.438 0-.848.097-1.273.125-2.906-8.344-10.757-14.366-20.09-14.366-1.285 0-2.53.16-3.747.376-4.88-8.678-14.067-14.617-24.734-14.617-15.73 0-28.482 12.753-28.482 28.482 0 .432.112.835.126 1.266"/><path stroke="#B6CC09" stroke-width="1.3" stroke-linecap="round" stroke-linejoin="round" stroke-miterlimit="10" d="M305.2 174.57c.333-.023.664-.06.994-.1 6.388.18 11.528 5.434 11.528 11.865"/></g></svg>