<svg xmlns="http://www.w3.org/2000/svg" width="294.332" height="184.667" viewBox="0 0 294.332 184.667"><path fill="#086571" stroke="#30415D" stroke-width="2.5" stroke-linecap="round" stroke-linejoin="round" stroke-miterlimit="10" d="M89.915 172.793h71.79c1.624 0 3.45-.115 4.606-1.468 1.16-1.356.89-3.064.693-4.314-.55-3.51-4.905-4.772-7.246-5.453l-3.52-1.022c-10.21-2.92-15.572-4.865-16.368-13.93l.002-14.453h-32.444l.003 14.454c-.795 9.064-6.156 11.008-16.366 13.93l-3.52 1.02c-2.342.682-6.698 1.942-7.247 5.455-.198 1.25-.468 2.96.692 4.315 1.154 1.353 2.98 1.468 4.606 1.468h71.79"/><path fill="#086571" stroke="#30415D" stroke-width="2.5" stroke-linecap="round" stroke-linejoin="round" stroke-miterlimit="10" d="M211.815 137.256H35.485c-6.7 0-12.133-5.432-12.133-12.133V14.94c0-6.7 5.432-12.132 12.133-12.132h176.33c6.7 0 12.133 5.432 12.133 12.133v110.184c0 6.7-5.432 12.132-12.133 12.132z"/><path fill="#FFF" stroke="#30415D" stroke-width="2.5" stroke-linecap="round" stroke-linejoin="round" stroke-miterlimit="10" d="M33.178 12.557h180.945v104.457H33.178z"/><path fill="#086571" stroke="#30415D" stroke-width="2.5" stroke-linecap="round" stroke-linejoin="round" stroke-miterlimit="10" d="M58.678 70.314H12.006c-4.498 0-8.162 3.664-8.162 8.16v94.85c0 4.494 3.664 8.158 8.162 8.158h46.672c4.507 0 8.162-3.664 8.162-8.16v-94.85c0-4.494-3.655-8.158-8.162-8.158z"/><path fill="#FFF" stroke="#30415D" stroke-width="2.5" stroke-linecap="round" stroke-linejoin="round" stroke-miterlimit="10" d="M30.712 76.08h9.26M13.02 81.708h44.643v80.902H13.02zM35.347 168.378c-1.886 0-3.416 1.536-3.416 3.416 0 1.886 1.53 3.42 3.417 3.42 1.886 0 3.416-1.535 3.416-3.42 0-1.88-1.53-3.416-3.416-3.416z"/><path fill="#086571" stroke="#30415D" stroke-width="2.5" stroke-linecap="round" stroke-linejoin="round" stroke-miterlimit="10" d="M290.97 169.19V98.357c0-6.826-4.428-12.386-9.86-12.386H166.505c-5.432 0-9.86 5.56-9.86 12.386v70.83c0 6.84 4.428 12.387 9.86 12.387H281.11c5.432 0 9.86-5.546 9.86-12.386z"/><path fill="#FFF" stroke="#30415D" stroke-width="2.5" stroke-linecap="round" stroke-linejoin="round" stroke-miterlimit="10" d="M284 126.748V140.8M179.45 94.712h97.752v78.123H179.45zM172.48 133.774c0-2.28-1.855-4.128-4.128-4.128-2.28 0-4.134 1.85-4.134 4.128 0 2.28 1.855 4.128 4.134 4.128 2.273 0 4.128-1.85 4.128-4.128z"/><path fill="#B8CC07" stroke="#B8CC07" stroke-width="3" stroke-miterlimit="10" d="M21.12 89.59h28.445v21.878H21.12z"/><path fill="none" stroke="#30415D" stroke-width="2.5" stroke-linecap="round" stroke-linejoin="round" stroke-miterlimit="10" d="M21.12 118.882h28.444M21.12 126.37h28.444M21.12 134.006h28.444"/><path fill="#B8CC07" stroke="#B8CC07" stroke-width="3" stroke-miterlimit="10" d="M188.445 103.586h49.79v26.06h-49.79z"/><path fill="none" stroke="#30415D" stroke-width="2.5" stroke-linecap="round" stroke-linejoin="round" stroke-miterlimit="10" d="M189.44 137.49h77.004M189.627 144.978h77.003M189.627 152.615h63.792M204.87 44.106c-2.315-1.96-.484-4.122-2.8-6.08-2.314-1.96-4.145.204-6.46-1.755-2.317-1.96-.486-4.123-2.802-6.084-2.318-1.962-4.15.202-6.468-1.76s-.487-4.126-2.806-6.088M197.41 52.052c-2.313-1.96-.482-4.122-2.797-6.08-2.315-1.96-4.146.204-6.46-1.755-2.318-1.96-.487-4.124-2.803-6.085-2.318-1.962-4.15.202-6.468-1.76-2.318-1.962-.487-4.126-2.806-6.088"/></svg>