<svg xmlns="http://www.w3.org/2000/svg" width="300.8" height="191.2" viewBox="0 0 300.8 191.2"><path fill="#066672" stroke="#31415D" stroke-width="1.3" stroke-linecap="round" stroke-linejoin="round" stroke-miterlimit="10" d="M94.897 176.282h71.79c1.624 0 3.45-.115 4.606-1.468 1.16-1.356.89-3.064.692-4.314-.55-3.512-4.905-4.773-7.246-5.454l-3.522-1.022c-10.21-2.92-15.57-4.865-16.367-13.93l.004-14.453H112.41l.003 14.455c-.796 9.064-6.157 11.008-16.367 13.93l-3.52 1.02c-2.342.682-6.698 1.942-7.247 5.455-.2 1.25-.47 2.958.69 4.314 1.156 1.353 2.982 1.468 4.608 1.468h71.79"/><path fill="#066672" stroke="#31415D" stroke-width="1.3" stroke-linecap="round" stroke-linejoin="round" stroke-miterlimit="10" d="M216.796 140.746H40.466c-6.7 0-12.132-5.432-12.132-12.133V18.43c0-6.7 5.432-12.132 12.133-12.132h176.33c6.7 0 12.133 5.432 12.133 12.133v110.184c0 6.7-5.433 12.132-12.134 12.132z"/><path fill="#FFF" stroke="#31415D" stroke-width="1.3" stroke-linecap="round" stroke-linejoin="round" stroke-miterlimit="10" d="M38.16 16.047h180.944v104.457H38.16zM177.462 137.263c0-2.28-1.855-4.128-4.128-4.128-2.28 0-4.134 1.85-4.134 4.128 0 2.28 1.855 4.128 4.134 4.128 2.272 0 4.128-1.848 4.128-4.127z"/><path fill="none" stroke="#31415D" stroke-width="1.3" stroke-linecap="round" stroke-linejoin="round" stroke-miterlimit="10" d="M207.016 50.43c-2.314-1.96-.483-4.122-2.798-6.08-2.315-1.96-4.146.204-6.46-1.755-2.318-1.96-.487-4.124-2.803-6.085-2.318-1.962-4.15.202-6.468-1.76-2.318-1.962-.487-4.126-2.806-6.088"/><g stroke-width="1.3" stroke-miterlimit="10"><path fill="#066672" stroke="#31415D" stroke-linecap="round" stroke-linejoin="round" d="M63.66 73.803H16.987c-4.498 0-8.162 3.664-8.162 8.16v94.85c0 4.494 3.664 8.158 8.162 8.158H63.66c4.507 0 8.162-3.663 8.162-8.158v-94.85c0-4.495-3.655-8.16-8.162-8.16z"/><path fill="#FFF" stroke="#31415D" stroke-linecap="round" stroke-linejoin="round" d="M18.002 85.198h44.642V166.1H18.002zM40.328 171.867c-1.886 0-3.416 1.536-3.416 3.416 0 1.886 1.53 3.42 3.416 3.42s3.416-1.535 3.416-3.42c0-1.88-1.53-3.416-3.416-3.416z"/><path fill="#B6CC09" stroke="#B6CC09" d="M26.1 93.08h28.446v21.878H26.1z"/><path fill="none" stroke="#31415D" stroke-linecap="round" stroke-linejoin="round" d="M26.1 124.19h28.446"/></g><g stroke-width="1.3" stroke-miterlimit="10"><path fill="#066672" stroke="#31415D" stroke-linecap="round" stroke-linejoin="round" d="M295.95 172.68v-70.832c0-6.826-4.426-12.386-9.858-12.386H171.486c-5.432 0-9.86 5.56-9.86 12.386v70.83c0 6.84 4.428 12.387 9.86 12.387h114.606c5.432 0 9.86-5.546 9.86-12.386z"/><path fill="#FFF" stroke="#31415D" stroke-linecap="round" stroke-linejoin="round" d="M184.43 98.202h97.753v78.123H184.43z"/><path fill="#B6CC09" stroke="#B6CC09" d="M193.426 107.076h49.79v26.06h-49.79z"/><path fill="none" stroke="#31415D" stroke-linecap="round" stroke-linejoin="round" d="M194.422 143.815h77.003M194.61 154.404h63.79"/><path fill="#FFF" stroke="#31415D" stroke-linecap="round" stroke-linejoin="round" d="M173.33 133.845c-1.885 0-3.415 1.536-3.415 3.416 0 1.887 1.53 3.422 3.416 3.422 1.887 0 3.417-1.536 3.417-3.42 0-1.882-1.53-3.417-3.416-3.417z"/></g></svg>