<svg xmlns="http://www.w3.org/2000/svg" width="178" height="185" viewBox="-5 0 178 185"><path fill="none" stroke="#333" stroke-miterlimit="10" d="M83.243.875l-82.69 29.1L13.622 138.31l69.71 38.315 70.07-38.833L166.462 29.46 83.242.875zm74.97 34.846L83.05 10.09v157.38l62.99-34.86 12.174-96.89zm-148.38.463l11.197 96.89 62.02 34.398V10.087L9.832 36.183zm73.217 67.363H61.243l-10.25 25.64-19.068.353L83.05 15.803v87.742zM101.74 89L83.187 52.27 67.97 88.37h15.08l18.69.632zM83.05 15.804l.136 36.467 17.268 36.126H83.088l-.04 15.127 24.014.023 11.223 25.997 18.244.338L83.05 15.805z"/></svg>