<svg xmlns="http://www.w3.org/2000/svg" width="612" height="604" viewBox="0 0 612 604"><g fill="none" stroke="#333" stroke-width="7" stroke-miterlimit="10"><path d="M111 277.005c-44.86 0-80 21.96-80 50V527c0 28.04 35.14 50 80 50s79.998-21.96 79.998-50V327.005c0-28.04-35.14-50-80-50zM111 557c-35.36 0-60-15.81-60-30v-16.67C65.55 520.59 86.83 527 111 527s45.448-6.41 59.998-16.67V527c0 14.19-24.64 30-60 30zm0-50c-35.36 0-60-15.81-60-29.998v-16.67c14.55 10.26 35.83 16.67 60 16.67s45.448-6.41 59.998-16.67v16.67c0 14.19-24.64 30-60 30zm0-49.998c-35.36 0-60-15.81-60-30v-16.67c14.55 10.26 35.83 16.67 60 16.67s45.448-6.41 59.998-16.67v16.67c0 14.19-24.64 30-60 30zm0-50c-35.36 0-60-15.81-60-29.998v-16.67c14.55 10.26 35.83 16.67 60 16.67s45.448-6.41 59.998-16.67v16.67c0 14.19-24.64 30-60 30zm0-49.998c-35.36 0-60-15.81-60-30s24.64-29.998 60-29.998 59.998 15.81 59.998 30c0 14.188-24.64 29.998-60 29.998zM510.99 27.01c-44.858 0-79.998 21.96-79.998 50V527c0 28.04 35.14 50 80 50s79.998-21.96 79.998-50V77.01c0-28.04-35.14-50-80-50zm0 20c35.36 0 60 15.81 60 29.998s-24.64 30-60 30-59.998-15.81-59.998-30 24.64-30 60-30zm0 509.99c-35.358 0-59.998-15.81-59.998-30v-16.67c14.55 10.26 35.83 16.67 60 16.67s45.448-6.41 59.998-16.67V527c0 14.19-24.64 30-60 30zm0-50c-35.358 0-59.998-15.81-59.998-29.998v-16.67c14.55 10.26 35.83 16.67 60 16.67s45.448-6.41 59.998-16.67v16.67c0 14.19-24.64 30-60 30zm0-49.998c-35.358 0-59.998-15.81-59.998-30v-16.67c14.55 10.26 35.83 16.67 60 16.67s45.448-6.41 59.998-16.67v16.67c0 14.19-24.64 30-60 30zm0-50c-35.358 0-59.998-15.81-59.998-29.998v-16.67c14.55 10.26 35.83 16.67 60 16.67s45.448-6.41 59.998-16.67v16.67c0 14.19-24.64 30-60 30zm0-49.998c-35.358 0-59.998-15.81-59.998-30v-16.67c14.55 10.26 35.83 16.67 60 16.67s45.448-6.41 59.998-16.67v16.67c0 14.19-24.64 30-60 30zm0-50c-35.358 0-59.998-15.81-59.998-29.998v-16.67c14.55 10.26 35.83 16.67 60 16.67s45.448-6.41 59.998-16.67v16.67c0 14.19-24.64 30-60 30zm0-49.998c-35.358 0-59.998-15.81-59.998-30v-16.67c14.55 10.26 35.83 16.67 60 16.67s45.448-6.41 59.998-16.67v16.67c0 14.19-24.64 30-60 30zm0-50c-35.358 0-59.998-15.81-59.998-29.998v-16.67c14.55 10.26 35.83 16.67 60 16.67s45.448-6.41 59.998-16.67v16.67c0 14.19-24.64 30-60 30zm0-49.998c-35.358 0-59.998-15.81-59.998-30v-16.68c14.55 10.26 35.83 16.67 60 16.67s45.448-6.41 59.998-16.67V127c0 14.2-24.64 30.01-60 30.01zM307.5 177.5c-2.774 0-5.507.11-8.194.32l-.298.023c-38.896 3.156-68.013 27.514-68.013 49.164v299.995c0 28.04 35.14 50 80 50s79.998-21.96 79.998-50V227.006c0-25.91-33.993-49.506-83.493-49.506zM370.994 527c0 14.19-24.64 30-60 30s-59.998-15.81-59.998-30v-16.67c14.55 10.26 35.83 16.67 60 16.67s45.448-6.41 59.998-16.67V527zm0-49.998c0 14.19-24.64 30-60 30s-59.998-15.81-59.998-30v-16.67c14.55 10.26 35.83 16.67 60 16.67s45.448-6.41 59.998-16.67v16.67zm0-50c0 14.19-24.64 30-60 30s-59.998-15.81-59.998-30v-16.67c14.55 10.26 35.83 16.67 60 16.67s45.448-6.41 59.998-16.67v16.67zm0-49.998c0 14.19-24.64 30-60 30s-59.998-15.81-59.998-30v-16.67c14.55 10.26 35.83 16.67 60 16.67s45.448-6.41 59.998-16.67v16.67zm0-50c0 14.19-24.64 30-60 30s-59.998-15.81-59.998-30v-16.67c14.55 10.26 35.83 16.67 60 16.67s45.448-6.41 59.998-16.67v16.67zm0-49.998c0 14.19-24.64 30-60 30s-59.998-15.81-59.998-30v-16.67c14.55 10.26 35.83 16.67 60 16.67s45.448-6.41 59.998-16.67v16.67zm-60-20c-35.358 0-59.998-15.81-59.998-30 0-12.81 23-33.02 59.004-32.506s60.994 19.696 60.994 32.506c0 14.19-24.64 30-60 30z"/><path d="M323.064 165.324c.143.005.43-14.177.43-14.177l14.41-14.41c2.04.14 4.46.26 7.39.26 13.87 0 36.16-2.6 50.88-17.31 22.25-22.26 16.79-61.78 16.55-63.45-.64-4.388-4.08-7.828-8.46-8.458-1.68-.27-41.21-5.7-63.45 16.55-17.79 17.8-17.86 46.578-17.06 58.278l-17.33 17.33c-1.88 1.87-2.93 4.41-2.93 7.07v5.86l-30-30V87.01h-.07c.43-15.11-1.52-42.808-19.32-60.608-24.92-24.94-69.428-18.82-71.298-18.53-4.39.64-7.83 4.08-8.46 8.46-.27 1.88-6.41 46.37 18.53 71.3 16.47 16.47 41.48 19.38 57.1 19.38 1.28 0 2.38-.04 3.52-.08v20.08c0 2.66-.45 4.2 1.43 6.07l42.324 40.42 4.875 11.375-.375 50.75 20 .125v-51.875l1.314-18.55zM253.446 86.96c-11.78.34-33.73-.77-46.42-13.47-12.7-12.69-13.86-34.69-13.47-46.42 11.82-.29 33.74.77 46.42 13.47 12.7 12.69 13.86 34.69 13.47 46.42zm128.588 18.578c-10.4 10.4-28.2 11.64-38.52 11.45-.23-10.29 1.07-28.14 11.45-38.52 10.38-10.38 28.13-11.56 38.52-11.45.22 10.3-1.08 28.15-11.45 38.52z"/></g></svg>