<svg xmlns="http://www.w3.org/2000/svg" viewBox="0 0 56.001 56.001"><path d="M8 26c-4.486 0-8 2.197-8 5v20c0 2.805 3.514 5 8 5s8-2.195 8-5V31c0-2.803-3.514-5-8-5zm0 28c-3.536 0-6-1.58-6-3v-1.666C3.455 50.36 5.583 51 8 51s4.545-.64 6-1.666V51c0 1.42-2.464 3-6 3zm0-5c-3.536 0-6-1.58-6-3v-1.666C3.455 45.36 5.583 46 8 46s4.545-.64 6-1.666V46c0 1.42-2.464 3-6 3zm0-5c-3.536 0-6-1.58-6-3v-1.666C3.455 40.36 5.583 41 8 41s4.545-.64 6-1.666V41c0 1.42-2.464 3-6 3zm0-5c-3.536 0-6-1.58-6-3v-1.666C3.455 35.36 5.583 36 8 36s4.545-.64 6-1.666V36c0 1.42-2.464 3-6 3zm0-5c-3.536 0-6-1.58-6-3 0-1.418 2.464-3 6-3s6 1.582 6 3c0 1.42-2.464 3-6 3zM48 1c-4.486 0-8 2.197-8 5v45c0 2.805 3.514 5 8 5s8-2.195 8-5V6c0-2.803-3.514-5-8-5zm0 2c3.536 0 6 1.582 6 3s-2.464 3-6 3-6-1.58-6-3 2.464-3 6-3zm0 51c-3.536 0-6-1.58-6-3v-1.666C43.455 50.36 45.583 51 48 51s4.545-.64 6-1.666V51c0 1.42-2.464 3-6 3zm0-5c-3.536 0-6-1.58-6-3v-1.666C43.455 45.36 45.583 46 48 46s4.545-.64 6-1.666V46c0 1.42-2.464 3-6 3zm0-5c-3.536 0-6-1.58-6-3v-1.666C43.455 40.36 45.583 41 48 41s4.545-.64 6-1.666V41c0 1.42-2.464 3-6 3zm0-5c-3.536 0-6-1.58-6-3v-1.666C43.455 35.36 45.583 36 48 36s4.545-.64 6-1.666V36c0 1.42-2.464 3-6 3zm0-5c-3.536 0-6-1.58-6-3v-1.666C43.455 30.36 45.583 31 48 31s4.545-.64 6-1.666V31c0 1.42-2.464 3-6 3zm0-5c-3.536 0-6-1.58-6-3v-1.666C43.455 25.36 45.583 26 48 26s4.545-.64 6-1.666V26c0 1.42-2.464 3-6 3zm0-5c-3.536 0-6-1.58-6-3v-1.666C43.455 20.36 45.583 21 48 21s4.545-.64 6-1.666V21c0 1.42-2.464 3-6 3zm0-5c-3.536 0-6-1.58-6-3v-1.666C43.455 15.36 45.583 16 48 16s4.545-.64 6-1.666V16c0 1.42-2.464 3-6 3zm0-5c-3.536 0-6-1.58-6-3V9.334C43.455 10.36 45.583 11 48 11s4.545-.64 6-1.667V11c0 1.42-2.464 3-6 3zM37.077 4.078c-.168-.027-4.12-.57-6.345 1.655-1.78 1.78-1.786 4.658-1.706 5.828l-1.733 1.734c-.188.187-.293.44-.293.707v.587l-3-3V8h-.007c.043-1.51-.152-4.28-1.932-6.06C19.57-.554 15.12.058 14.93.087c-.438.064-.782.408-.845.846-.027.188-.64 4.637 1.853 7.13C17.585 9.71 20.086 10 21.648 10c.128 0 .238-.003.352-.007V12c0 .267.105.52.293.708l3.485 3.485C22.408 16.783 20 18.68 20 21v30c0 2.805 3.514 5 8 5s8-2.195 8-5V21c0-2.59-3.004-4.66-7-4.958v-1.627l1.44-1.44c.205.013.447.025.74.025 1.387 0 3.616-.26 5.088-1.73 2.225-2.227 1.68-6.18 1.655-6.346-.064-.44-.408-.783-.846-.846zm-19.724 2.57c-1.27-1.268-1.386-3.468-1.347-4.64 1.182-.03 3.374.076 4.642 1.346 1.27 1.27 1.386 3.47 1.347 4.642-1.178.034-3.373-.077-4.642-1.347zM28 54.002c-3.536 0-6-1.58-6-3v-1.666C23.455 50.36 25.583 51 28 51s4.545-.64 6-1.666V51c0 1.42-2.464 3-6 3zm0-5c-3.536 0-6-1.58-6-3v-1.666C23.455 45.36 25.583 46 28 46s4.545-.64 6-1.666V46c0 1.42-2.464 3-6 3zm0-5c-3.536 0-6-1.58-6-3v-1.666C23.455 40.36 25.583 41 28 41s4.545-.64 6-1.666V41c0 1.42-2.464 3-6 3zm0-5c-3.536 0-6-1.58-6-3v-1.666C23.455 35.36 25.583 36 28 36s4.545-.64 6-1.666V36c0 1.42-2.464 3-6 3zm0-5c-3.536 0-6-1.58-6-3v-1.666C23.455 30.36 25.583 31 28 31s4.545-.64 6-1.666V31c0 1.42-2.464 3-6 3zm0-5c-3.536 0-6-1.58-6-3v-1.666C23.455 25.36 25.583 26 28 26s4.545-.64 6-1.666V26c0 1.42-2.464 3-6 3zm6-8c0 1.42-2.464 3-6 3s-6-1.58-6-3c0-1.28 2.01-2.688 5-2.95V21h2v-2.95c2.99.262 5 1.67 5 2.95zm.854-11.146c-1.04 1.04-2.82 1.164-3.852 1.145-.023-1.03.107-2.815 1.145-3.853C33.185 6.11 34.96 5.99 36 6.002c.02 1.03-.11 2.815-1.146 3.852z"/></svg>