<svg xmlns="http://www.w3.org/2000/svg" width="612" height="604" viewBox="182.5 -23.5 612 604"><g fill="none" stroke="#333" stroke-width="7" stroke-miterlimit="10"><path d="M280 260.005c-44.86 0-80 21.96-80 50V510c0 28.04 35.14 50 80 50s79.998-21.96 79.998-50V310.005c0-28.04-35.14-50-80-50zM280 540c-35.36 0-60-15.81-60-30v-16.67c14.55 10.26 35.83 16.67 60 16.67s45.448-6.41 59.998-16.67V510c0 14.19-24.64 30-60 30zm0-50c-35.36 0-60-15.81-60-29.998v-16.67c14.55 10.26 35.83 16.67 60 16.67s45.448-6.41 59.998-16.67v16.67c0 14.19-24.64 30-60 30zm0-49.998c-35.36 0-60-15.81-60-30v-16.67c14.55 10.26 35.83 16.67 60 16.67s45.448-6.41 59.998-16.67v16.67c0 14.19-24.64 30-60 30zm0-50c-35.36 0-60-15.81-60-29.998v-16.67c14.55 10.26 35.83 16.67 60 16.67s45.448-6.41 59.998-16.67v16.67c0 14.19-24.64 30-60 30zm0-49.998c-35.36 0-60-15.81-60-30s24.64-29.998 60-29.998 59.998 15.81 59.998 30c0 14.188-24.64 29.998-60 29.998zM679.99 10.01c-44.858 0-79.998 21.96-79.998 50V510c0 28.04 35.14 50 80 50s79.998-21.96 79.998-50V60.01c0-28.04-35.14-50-80-50zm0 20c35.36 0 60 15.81 60 29.998s-24.64 30-60 30-59.998-15.81-59.998-30 24.64-30 60-30zm0 509.99c-35.358 0-59.998-15.81-59.998-30v-16.67c14.55 10.26 35.83 16.67 60 16.67s45.448-6.41 59.998-16.67V510c0 14.19-24.64 30-60 30zm0-50c-35.358 0-59.998-15.81-59.998-29.998v-16.67c14.55 10.26 35.83 16.67 60 16.67s45.448-6.41 59.998-16.67v16.67c0 14.19-24.64 30-60 30zm0-49.998c-35.358 0-59.998-15.81-59.998-30v-16.67c14.55 10.26 35.83 16.67 60 16.67s45.448-6.41 59.998-16.67v16.67c0 14.19-24.64 30-60 30zm0-50c-35.358 0-59.998-15.81-59.998-29.998v-16.67c14.55 10.26 35.83 16.67 60 16.67s45.448-6.41 59.998-16.67v16.67c0 14.19-24.64 30-60 30zm0-49.998c-35.358 0-59.998-15.81-59.998-30v-16.67c14.55 10.26 35.83 16.67 60 16.67s45.448-6.41 59.998-16.67v16.67c0 14.19-24.64 30-60 30zm0-50c-35.358 0-59.998-15.81-59.998-29.998v-16.67c14.55 10.26 35.83 16.67 60 16.67s45.448-6.41 59.998-16.67v16.67c0 14.19-24.64 30-60 30zm0-49.998c-35.358 0-59.998-15.81-59.998-30v-16.67c14.55 10.26 35.83 16.67 60 16.67s45.448-6.41 59.998-16.67v16.67c0 14.19-24.64 30-60 30zm0-50c-35.358 0-59.998-15.81-59.998-29.998v-16.67c14.55 10.26 35.83 16.67 60 16.67s45.448-6.41 59.998-16.67v16.67c0 14.19-24.64 30-60 30zm0-49.998c-35.358 0-59.998-15.81-59.998-30V93.33c14.55 10.26 35.83 16.67 60 16.67s45.448-6.41 59.998-16.67V110c0 14.2-24.64 30.01-60 30.01zM570.763 40.78c-1.68-.27-41.21-5.7-63.45 16.55-17.79 17.8-17.86 46.578-17.06 58.278l-17.33 17.33c-1.88 1.87-2.93 4.41-2.93 7.07v5.86l-29.998-30V80.01h-.07c.43-15.11-1.52-42.808-19.32-60.608-24.92-24.94-69.43-18.82-71.3-18.53-4.39.64-7.83 4.08-8.46 8.46-.27 1.88-6.41 46.37 18.53 71.3 16.47 16.47 41.48 19.38 57.1 19.38 1.28 0 2.38-.04 3.52-.08v20.08c0 2.66 1.05 5.2 2.93 7.07l34.85 34.848c-33.7 5.89-57.78 24.88-57.78 48.08V510c0 28.04 35.14 50 80 50s79.998-21.96 79.998-50V210.006c0-25.91-30.04-46.6-70-49.59v-16.27l14.41-14.41c2.04.14 4.46.26 7.39.26 13.87 0 36.16-2.6 50.88-17.31 22.25-22.26 16.79-61.778 16.55-63.448-.64-4.39-4.08-7.83-8.46-8.46zM373.527 66.49c-12.7-12.69-13.86-34.69-13.47-46.42 11.82-.29 33.74.77 46.42 13.47 12.7 12.69 13.86 34.69 13.47 46.42-11.78.34-33.73-.77-46.42-13.47zM479.995 540c-35.36 0-60-15.81-60-30v-16.67c14.55 10.26 35.83 16.67 60 16.67s45.45-6.41 60-16.67V510c0 14.19-24.64 30-60 30zm0-50c-35.36 0-60-15.81-60-29.998v-16.67c14.55 10.26 35.83 16.67 60 16.67s45.45-6.41 60-16.67v16.67c0 14.19-24.64 30-60 30zm0-49.998c-35.36 0-60-15.81-60-30v-16.67c14.55 10.26 35.83 16.67 60 16.67s45.45-6.41 60-16.67v16.67c0 14.19-24.64 30-60 30zm0-50c-35.36 0-60-15.81-60-29.998v-16.67c14.55 10.26 35.83 16.67 60 16.67s45.45-6.41 60-16.67v16.67c0 14.19-24.64 30-60 30zm0-49.998c-35.36 0-60-15.81-60-30v-16.67c14.55 10.26 35.83 16.67 60 16.67s45.45-6.41 60-16.67v16.67c0 14.19-24.64 30-60 30zm0-50c-35.36 0-60-15.81-60-29.998v-16.67c14.55 10.26 35.83 16.67 60 16.67s45.45-6.41 60-16.67v16.67c0 14.19-24.64 30-60 30zm60-79.998c0 14.19-24.64 30-60 30s-60-15.81-60-30c0-12.81 20.1-26.89 50-29.52v29.52h20v-29.52c29.9 2.63 50 16.71 50 29.52zm8.54-111.468c-10.4 10.4-28.2 11.64-38.52 11.45-.23-10.29 1.07-28.14 11.45-38.52 10.38-10.38 28.13-11.56 38.52-11.45.22 10.3-1.08 28.15-11.45 38.52z"/></g></svg>