<svg xmlns="http://www.w3.org/2000/svg" width="52" height="71.667" viewBox="0 0 52 71.667"><path fill="#192947" d="M-561.446 128.933c-.167 5.366-4.566 9.665-9.972 9.665-.115 0-.228-.005-.342-.01v30.813c.114.002.227.005.342.005 22.42 0 40.614-18.092 40.783-40.473h-30.81zM-258.396 159.157c-5.366-.167-9.616-4.566-9.616-9.972 0-.115.005-.228.01-.342h-30.862c0 .114-.004.227-.004.342 0 22.42 18.092 40.614 40.473 40.783v-30.81zM-74.24 149.17c-.167 5.365-5.28 9.94-10.685 9.94-.115 0-.228-.004-.342-.008v30.865h.342c22.42 0 41.38-18.418 41.55-40.8H-74.24zM-43.375 123.146c.167-5.366 4.753-7.91 10.16-7.91.114 0 .227.004.34.008v-30.81c-.113-.002-.226-.005-.34-.005-22.422 0-40.856 16.336-41.026 38.717h30.865zM-308.523 125.63c5.366.166 9.66 4.51 9.66 9.917 0 .115-.006.228-.01.342h30.87c.185-22.578-18.384-40.956-40.88-41.126l.36 30.865z"/><path fill="#192947" d="M-530.316 135.237c.167-5.366 4.566-9.665 9.972-9.665.115 0 .228-.144.342-.14V94.767c-.114 0-.227-.004-.342-.004-22.42 0-40.614 18.092-40.783 40.473h30.81z"/><path fill="#192947" d="M-561.127 135.237h30.81l-.317-6.304h-30.812M-298.868 135.237h30.865v13.606h-30.865zM-74.24 123.146h30.865v27.002H-74.24zM6.91 83.98v30.865l-39.783.4V84.433M48.804 75.455H17.94l-.402-39.785H48.35M-783.597 138.54h211.838v30.866h-211.837zM-308.523 94.764v30.865l-211.838-.058V94.764M-85.267 159.103v30.865h-173.13v-30.81"/><path fill="none" stroke="#BDCA00" stroke-width="3.68" stroke-linecap="round" stroke-linejoin="round" stroke-miterlimit="10" d="M19.568 24.697L8.874 8.373M34.564 22.603L45.258 6.28"/><circle fill="#192947" cx="31.799" cy="35.21" r="16.365"/><path fill="#FFF" d="M43.616 29.168c-.872-2.342-3.18-3.455-5.608-3.004-1.22.227-2.386.845-3.237 1.756-.892.956-.963 2.055-1.008 3.303-.05 1.406 2.133 1.278 2.183-.12.057-1.582.925-2.57 2.573-2.82 1.312-.2 2.545.295 3.023 1.58.492 1.315 2.57.63 2.076-.695zM21.738 35.316c-.266-1.372.764-2.46 1.985-2.894 1.565-.557 2.663-.067 3.52 1.228.774 1.174 2.602-.027 1.824-1.205-.65-.983-1.243-1.795-2.406-2.164-1.293-.41-2.755-.308-4 .216-2.292.965-3.464 3.1-2.996 5.515.267 1.376 2.34.672 2.074-.694z"/><path fill="#192947" d="M17.94 74.065c-.168 5.366-5.28 9.942-10.686 9.942-.115 0-.228-.005-.342-.01v30.866h.342c22.42 0 41.38-18.418 41.55-40.8H17.94z"/></svg>