<svg xmlns="http://www.w3.org/2000/svg" width="428.979" height="485.976" viewBox="0 0 428.979 485.976"><g fill="none" stroke="#5D5D5D" stroke-width="5" stroke-miterlimit="10"><path d="M174.506 392.165c-4.57 0-8.287 3.718-8.287 8.287 0 4.57 3.716 8.29 8.286 8.29h84.054c4.573 0 8.293-3.72 8.293-8.29 0-4.57-3.72-8.287-8.293-8.287h-84.054zM216.56 475.596c-11.738 0-21.678-7.844-24.58-19.007-15.088-2.193-26.547-15.135-26.547-30.573v-3.5h102.202v3.5c0 15.42-11.432 28.36-26.487 30.568-2.898 11.167-12.84 19.01-24.587 19.01zM167.66 371.153h97.13v-34.186l.5-.832c11.606-19.35 25.715-40.01 37.74-55.265 15.41-19.54 23.558-43.014 23.558-67.88 0-60.683-49.363-110.05-110.04-110.05-60.684 0-110.053 49.367-110.053 110.05 0 24.852 8.143 48.32 23.548 67.864 13.34 16.928 26.18 35.706 37.134 54.306l.484.822v35.17z"/></g><path fill="#5D5D5D" d="M33.01 129.828l51 26.444c5.717 2.964 10.775-5.665 5.048-8.635l-51-26.444c-5.715-2.964-10.773 5.666-5.047 8.635zM103.497 45.897l30.442 48.72c3.407 5.454 12.06.44 8.634-5.047l-30.442-48.72c-3.41-5.455-12.063-.44-8.635 5.047zM216.53 14.013c-.33 19.147-.66 38.293-.992 57.44-.112 6.452 9.89 6.44 10 0 .33-19.147.662-38.293.993-57.44.113-6.452-9.887-6.44-10 0zM325.675 40.326c-10.64 15.922-21.277 31.845-31.916 47.767-3.595 5.38 5.07 10.38 8.634 5.047 10.64-15.922 21.277-31.845 31.916-47.767 3.594-5.38-5.072-10.38-8.635-5.047zM350.412 157.933l50.293-27.766c5.646-3.117.602-11.754-5.047-8.635l-50.293 27.766c-5.646 3.117-.602 11.754 5.047 8.635zM364.332 226.638l57.407 2.19c6.45.247 6.426-9.754 0-10l-57.408-2.19c-6.452-.247-6.428 9.754 0 10zM337.1 301.285L381.9 337.25c4.976 3.996 12.1-3.032 7.07-7.07-14.93-11.99-29.864-23.977-44.796-35.966-4.977-3.995-12.1 3.034-7.07 7.07zM12.388 229.833l57.294-4.2c6.39-.47 6.437-10.473 0-10l-57.294 4.2c-6.392.47-6.437 10.472 0 10zM49.112 338.644l46.893-33.187c5.218-3.693.23-12.37-5.047-8.635L44.065 330.01c-5.218 3.69-.23 12.368 5.047 8.634z"/><g fill="none" stroke="#5D5D5D" stroke-width="5" stroke-miterlimit="10"><path d="M200.405 369.293l-23.74-114.508M234.313 368.424l22.444-114.77M181.486 274.14l24.868-16.64 3.18 27.01 14.657-39.085 10.585 30.196 18.737-8.566"/></g></svg>