<svg xmlns="http://www.w3.org/2000/svg" width="80" height="80" viewBox="0 0 80 80"><path fill="#348AA7" d="M-18-28v420h777V-28H-18zm73.2 363.584c-13.373 13.374-38.723 9.708-38.723 9.708s-3.666-25.35 9.708-38.724c13.374-13.374 38.724-9.708 38.724-9.708s3.665 25.35-9.71 38.724zm0-93.276c-13.373 13.374-38.723 9.708-38.723 9.708s-3.666-25.35 9.708-38.724 38.724-9.708 38.724-9.708 3.665 25.35-9.71 38.724zm0-93.277c-13.373 13.375-38.723 9.71-38.723 9.71s-3.666-25.35 9.708-38.725 38.724-9.708 38.724-9.708 3.665 25.35-9.71 38.724zm0-93.275c-13.373 13.374-38.723 9.708-38.723 9.708s-3.666-25.35 9.708-38.724 38.724-9.71 38.724-9.71 3.665 25.35-9.71 38.725zm66.03 279.83c-13.375 13.373-38.725 9.707-38.725 9.707s-3.666-25.35 9.708-38.724c13.374-13.374 38.724-9.708 38.724-9.708s3.666 25.35-9.708 38.724zm0-93.277c-13.375 13.374-38.725 9.708-38.725 9.708s-3.666-25.35 9.708-38.724 38.724-9.708 38.724-9.708 3.666 25.35-9.708 38.724zm0-93.277c-13.375 13.375-38.725 9.71-38.725 9.71s-3.666-25.35 9.708-38.725 38.724-9.708 38.724-9.708 3.666 25.35-9.708 38.724zm0-93.275c-13.375 13.374-38.725 9.708-38.725 9.708s-3.666-25.35 9.708-38.724 38.724-9.71 38.724-9.71 3.666 25.35-9.708 38.725zm66.026 279.83c-13.374 13.373-38.724 9.707-38.724 9.707s-3.666-25.35 9.708-38.724c13.374-13.374 38.724-9.708 38.724-9.708s3.666 25.35-9.708 38.724zm0-93.277c-13.374 13.374-38.724 9.708-38.724 9.708s-3.666-25.35 9.708-38.724 38.724-9.708 38.724-9.708 3.666 25.35-9.708 38.724zm0-93.277c-13.374 13.375-38.724 9.71-38.724 9.71s-3.666-25.35 9.708-38.725 38.724-9.708 38.724-9.708 3.666 25.35-9.708 38.724zm0-93.275c-13.374 13.374-38.724 9.708-38.724 9.708s-3.666-25.35 9.708-38.724 38.724-9.71 38.724-9.71 3.666 25.35-9.708 38.725zm66.028 279.83c-13.374 13.373-38.724 9.707-38.724 9.707s-3.666-25.35 9.708-38.724c13.374-13.374 38.724-9.708 38.724-9.708s3.666 25.35-9.708 38.724zm0-93.277c-13.374 13.374-38.724 9.708-38.724 9.708s-3.666-25.35 9.708-38.724c13.374-13.374 38.724-9.708 38.724-9.708s3.666 25.35-9.708 38.724zm0-93.277c-13.374 13.375-38.724 9.71-38.724 9.71s-3.666-25.35 9.708-38.725c13.374-13.374 38.724-9.708 38.724-9.708s3.666 25.35-9.708 38.724zm0-93.275c-13.374 13.374-38.724 9.708-38.724 9.708s-3.666-25.35 9.708-38.724c13.374-13.375 38.724-9.71 38.724-9.71s3.666 25.35-9.708 38.725zm66.027 279.83c-13.373 13.373-38.723 9.707-38.723 9.707s-3.666-25.35 9.708-38.724c13.374-13.374 38.724-9.708 38.724-9.708s3.665 25.35-9.71 38.724zm0-93.277c-13.373 13.374-38.723 9.708-38.723 9.708s-3.666-25.35 9.708-38.724 38.724-9.708 38.724-9.708 3.665 25.35-9.71 38.724zm0-93.277c-13.373 13.375-38.723 9.71-38.723 9.71s-3.666-25.35 9.708-38.725 38.724-9.708 38.724-9.708 3.665 25.35-9.71 38.724zm0-93.275c-13.373 13.374-38.723 9.708-38.723 9.708s-3.666-25.35 9.708-38.724 38.724-9.71 38.724-9.71 3.665 25.35-9.71 38.725zm66.03 279.83c-13.375 13.373-38.725 9.707-38.725 9.707s-3.666-25.35 9.708-38.724c13.374-13.374 38.724-9.708 38.724-9.708s3.666 25.35-9.708 38.724zm0-93.277c-13.375 13.374-38.725 9.708-38.725 9.708s-3.666-25.35 9.708-38.724 38.724-9.708 38.724-9.708 3.666 25.35-9.708 38.724zm0-93.277c-13.375 13.375-38.725 9.71-38.725 9.71s-3.666-25.35 9.708-38.725 38.724-9.708 38.724-9.708 3.666 25.35-9.708 38.724zm0-93.275c-13.375 13.374-38.725 9.708-38.725 9.708s-3.666-25.35 9.708-38.724 38.724-9.71 38.724-9.71 3.666 25.35-9.708 38.725zm66.026 279.83c-13.374 13.373-38.724 9.707-38.724 9.707s-3.666-25.35 9.708-38.724c13.374-13.374 38.724-9.708 38.724-9.708s3.666 25.35-9.708 38.724zm0-93.277c-13.374 13.374-38.724 9.708-38.724 9.708s-3.666-25.35 9.708-38.724 38.724-9.708 38.724-9.708 3.666 25.35-9.708 38.724zm0-93.277c-13.374 13.375-38.724 9.71-38.724 9.71s-3.666-25.35 9.708-38.725 38.724-9.708 38.724-9.708 3.666 25.35-9.708 38.724zm0-93.275c-13.374 13.374-38.724 9.708-38.724 9.708s-3.666-25.35 9.708-38.724 38.724-9.71 38.724-9.71 3.666 25.35-9.708 38.725zm66.027 279.83c-13.374 13.373-38.724 9.707-38.724 9.707s-3.667-25.35 9.707-38.724c13.374-13.374 38.724-9.708 38.724-9.708s3.668 25.35-9.707 38.724zm0-93.277c-13.374 13.374-38.724 9.708-38.724 9.708s-3.667-25.35 9.707-38.724 38.724-9.708 38.724-9.708 3.668 25.35-9.707 38.724zm0-93.277c-13.374 13.375-38.724 9.71-38.724 9.71s-3.667-25.35 9.707-38.725 38.724-9.708 38.724-9.708 3.668 25.35-9.707 38.724zm0-93.275c-13.374 13.374-38.724 9.708-38.724 9.708s-3.667-25.35 9.707-38.724 38.724-9.71 38.724-9.71 3.668 25.35-9.707 38.725zm66.028 279.83c-13.373 13.373-38.723 9.707-38.723 9.707s-3.666-25.35 9.708-38.724c13.374-13.374 38.724-9.708 38.724-9.708s3.665 25.35-9.71 38.724zm0-93.277c-13.373 13.374-38.723 9.708-38.723 9.708s-3.666-25.35 9.708-38.724 38.724-9.708 38.724-9.708 3.665 25.35-9.71 38.724zm0-93.277c-13.373 13.375-38.723 9.71-38.723 9.71s-3.666-25.35 9.708-38.725 38.724-9.708 38.724-9.708 3.665 25.35-9.71 38.724zm0-93.275c-13.373 13.374-38.723 9.708-38.723 9.708s-3.666-25.35 9.708-38.724 38.724-9.71 38.724-9.71 3.665 25.35-9.71 38.725zm66.028 279.83c-13.374 13.373-38.724 9.707-38.724 9.707s-3.666-25.35 9.708-38.724c13.374-13.374 38.724-9.708 38.724-9.708s3.667 25.35-9.708 38.724zm0-93.277c-13.374 13.374-38.724 9.708-38.724 9.708s-3.666-25.35 9.708-38.724 38.724-9.708 38.724-9.708 3.667 25.35-9.708 38.724zm0-93.277c-13.374 13.375-38.724 9.71-38.724 9.71s-3.666-25.35 9.708-38.725 38.724-9.708 38.724-9.708 3.667 25.35-9.708 38.724zm0-93.275c-13.374 13.374-38.724 9.708-38.724 9.708s-3.666-25.35 9.708-38.724 38.724-9.71 38.724-9.71 3.667 25.35-9.708 38.725zm66.028 279.83c-13.374 13.373-38.724 9.707-38.724 9.707s-3.666-25.35 9.708-38.724c13.374-13.374 38.724-9.708 38.724-9.708s3.666 25.35-9.708 38.724zm0-93.277c-13.374 13.374-38.724 9.708-38.724 9.708s-3.666-25.35 9.708-38.724 38.724-9.708 38.724-9.708 3.666 25.35-9.708 38.724zm0-93.277c-13.374 13.375-38.724 9.71-38.724 9.71s-3.666-25.35 9.708-38.725 38.724-9.708 38.724-9.708 3.666 25.35-9.708 38.724zm0-93.275c-13.374 13.374-38.724 9.708-38.724 9.708s-3.666-25.35 9.708-38.724 38.724-9.71 38.724-9.71 3.666 25.35-9.708 38.725z"/></svg>