<svg xmlns="http://www.w3.org/2000/svg" width="281.986" height="209.99" viewBox="0 0 281.986 209.99"><path fill="none" stroke="#5D5D5D" stroke-width="2" stroke-miterlimit="10" d="M271.848 183.746c0 8.734-7.073 15.81-15.793 15.81h-63.24c-8.72 0-15.793-7.076-15.793-15.81V46.75c0-8.733 7.074-15.81 15.794-15.81h63.24c8.72 0 15.792 7.076 15.792 15.81v136.996z"/><path fill="none" stroke="#5D5D5D" stroke-width="2" stroke-miterlimit="10" d="M182.28 62.56v81.334l42.607-81.334zM182.28 166.6v1.336h77.042l-55.416-42.615zM236.784 62.56l-29.15 55.645 58.955 45.358V62.56z"/><path fill="#5D5D5D" d="M208.625 49.388c0 1.453-1.168 2.638-2.637 2.638-1.452 0-2.622-1.185-2.622-2.638 0-1.453 1.17-2.638 2.622-2.638 1.468 0 2.637 1.185 2.637 2.638zM245.504 49.388c0 1.453-1.17 2.638-2.622 2.638h-26.344c-1.456 0-2.637-1.185-2.637-2.638 0-1.453 1.182-2.638 2.638-2.638h26.344c1.453 0 2.622 1.185 2.622 2.638zM234.97 183.746c0 5.813-4.72 10.534-10.535 10.534s-10.534-4.72-10.534-10.534c0-5.83 4.72-10.534 10.535-10.534s10.535 4.705 10.535 10.534z"/><path fill="#FFF" d="M219.16 178.47h10.546v10.535H219.16z"/><path fill="none" stroke="#5D5D5D" stroke-width="2" stroke-miterlimit="10" d="M207.634 118.205l29.15-55.645h-11.897l-42.606 81.334V166.6l21.626-41.28 55.416 42.616h7.267v-4.373z"/><path fill="none" stroke="#DF2C2C" stroke-width="2" stroke-miterlimit="10" d="M258.676 92.852c0 9.455-17.12 41.1-17.12 41.1s-17.12-31.645-17.12-41.1c0-9.454 7.665-17.12 17.12-17.12 9.453 0 17.12 7.666 17.12 17.12z"/><path fill="none" stroke="#DF2C2C" stroke-width="2" stroke-miterlimit="10" d="M249.198 92.852c0 4.218-3.425 7.643-7.643 7.643s-7.64-3.425-7.64-7.643 3.422-7.64 7.64-7.64 7.643 3.422 7.643 7.64z"/><path fill="none" stroke="#5D5D5D" stroke-width="2" stroke-miterlimit="10" d="M223.994 155.47c0 5.36-4.345 9.704-9.704 9.704H20.364c-5.357 0-9.704-4.345-9.704-9.703V19.724c0-5.354 4.347-9.683 9.704-9.683H214.29c5.36 0 9.704 4.33 9.704 9.683V155.47zM88.246 165.174h58.167v24.852H88.246z"/><path fill="none" stroke="#5D5D5D" stroke-width="2" stroke-miterlimit="10" d="M165.81 194.876c0 2.665-2.184 4.85-4.85 4.85H73.694c-2.666 0-4.85-2.185-4.85-4.85 0-2.688 2.166-4.854 4.85-4.854h87.27c2.664 0 4.848 2.166 4.848 4.854zM223.994 155.47v-29.08H10.66v29.08c0 5.36 4.347 9.704 9.704 9.704H214.29c5.36 0 9.704-4.346 9.704-9.703z"/><path fill="#5D5D5D" d="M117.327 152.005c-3.105 0-5.625-2.522-5.625-5.618 0-3.105 2.528-5.627 5.625-5.627 3.1 0 5.626 2.52 5.626 5.627 0 3.096-2.52 5.618-5.626 5.618zm0-8.366c-1.517 0-2.745 1.23-2.745 2.747 0 1.51 1.228 2.746 2.745 2.746 1.518 0 2.745-1.235 2.745-2.746 0-1.518-1.227-2.748-2.745-2.748z"/><path fill="none" stroke="#5D5D5D" stroke-width="2" stroke-miterlimit="10" d="M10.66 19.43v106.65h65.753L192.76 9.733H20.363c-5.357 0-9.704 4.346-9.704 9.7z"/><path fill="#333" d="M35.384 34.697c0-3.68 1.254-5.746 3.68-5.746 2.424 0 3.678 2.067 3.678 5.747 0 3.695-1.254 5.762-3.678 5.762-2.426 0-3.68-2.068-3.68-5.763zm5.824 0c0-3.255-.795-4.57-2.145-4.57-1.334 0-2.15 1.316-2.15 4.57 0 3.254.816 4.59 2.15 4.59 1.35-.016 2.145-1.336 2.145-4.59zm-2.145-1.058c-.605 0-1.06.474-1.06 1.057 0 .587.454 1.058 1.06 1.058.616 0 1.058-.47 1.058-1.058 0-.583-.44-1.058-1.057-1.058zM48.695 30.776l-2.667 1.613-.7-1.044 3.546-2.215h1.305v9.928h2.277v1.206h-6.495v-1.206h2.733M70.863 30.647l.718 1.104-5.648 3.45 5.65 3.484-.785 1.075-6.154-3.843v-1.433M79.797 40.264v-5.21H75.76v5.21h-1.53V29.147h1.53v4.638h4.037v-4.638h1.546v11.117M88.213 30.435v9.83h-1.53v-9.83H83.23v-1.288h8.465l-.16 1.288M100.074 40.264l-.324-5.696c-.08-1.562-.08-3.37-.062-3.73h-.052L97.88 38.28H96.4l-1.842-7.442h-.062c0 .358.03 2.28-.033 3.73l-.28 5.695h-1.416l.638-11.116h2.032l1.71 7.42h.065l1.626-7.42h2.053l.635 11.116h-1.45zM104.095 40.264V29.147h1.53v9.783h5.06l-.178 1.334M119.98 34.484v1.433l-6.152 3.842-.78-1.076 5.645-3.483-5.644-3.45.715-1.103M35.384 54.05c0-3.68 1.254-5.747 3.68-5.747 2.424 0 3.678 2.066 3.678 5.746 0 3.707-1.254 5.774-3.678 5.774-2.426 0-3.68-2.067-3.68-5.775zm5.824 0c0-3.242-.795-4.56-2.145-4.56-1.334 0-2.15 1.318-2.15 4.56 0 3.27.816 4.586 2.15 4.586 1.35 0 2.145-1.316 2.145-4.587zm-2.145-1.042c-.605 0-1.06.47-1.06 1.042 0 .6.454 1.074 1.06 1.074.616 0 1.058-.474 1.058-1.074 0-.572-.44-1.042-1.057-1.042zM46.987 58.38h5.046l-.18 1.252h-6.607V58.44c3.84-3.808 5.012-5.337 5.012-7.012 0-1.203-.796-1.87-1.888-1.87-.913 0-1.545.325-2.228 1.188l-1.025-.733c.86-1.075 1.97-1.708 3.337-1.708 2.033 0 3.336 1.283 3.336 3.075 0 1.936-1.532 3.874-4.803 7zM70.863 49.996l.718 1.124-5.648 3.45 5.65 3.466-.785 1.087-6.154-3.837v-1.433M77.49 59.632h-3.063V48.5h2.833c1.983 0 3.972.632 3.972 2.81 0 1.418-1.01 2.168-1.938 2.38v.063c1.11.197 2.425.85 2.425 2.688-.02 2.442-2.148 3.192-4.23 3.192zm.028-9.91h-1.562v3.482h1.695c1.3 0 2.02-.537 2.02-1.792-.02-1.238-.814-1.69-2.152-1.69zm.246 4.703h-1.808v3.954h1.74c1.093 0 2.393-.31 2.393-1.906 0-1.63-1.043-2.05-2.326-2.05zM87.463 59.825c-2.733 0-4.132-2.275-4.132-5.742 0-3.387 1.4-5.78 4.133-5.78s4.134 2.31 4.134 5.763c0 3.4-1.4 5.76-4.134 5.76zm0-10.254c-1.808 0-2.537 1.58-2.537 4.513 0 2.946.78 4.474 2.537 4.474 1.81 0 2.538-1.546 2.538-4.49 0-2.93-.73-4.496-2.537-4.496zM96.186 59.632H93.6V48.5h2.425c2.62 0 5.24.896 5.24 5.516.002 4.637-2.72 5.616-5.08 5.616zm.164-9.895h-1.222v8.674h1.238c1.595 0 3.27-.8 3.27-4.395 0-3.79-1.756-4.278-3.286-4.278zM107.594 55.35v4.282h-1.544v-4.266l-3.742-6.867h1.69l2.847 5.432h.05l2.85-5.433h1.607M119.98 53.853v1.433l-6.152 3.837-.78-1.087 5.645-3.467-5.644-3.45.715-1.124M35.384 73.414c0-3.68 1.254-5.746 3.68-5.746 2.424 0 3.678 2.066 3.678 5.746 0 3.695-1.254 5.762-3.678 5.762-2.426 0-3.68-2.066-3.68-5.762zm5.824 0c0-3.237-.795-4.57-2.145-4.57-1.334 0-2.15 1.333-2.15 4.57 0 3.27.816 4.59 2.15 4.59 1.35.002 2.145-1.337 2.145-4.59zm-2.145-1.04c-.605 0-1.06.457-1.06 1.04 0 .605.454 1.074 1.06 1.074.616 0 1.058-.47 1.058-1.074 0-.584-.44-1.04-1.057-1.04zM48.308 79.176c-1.287 0-2.62-.454-3.467-1.495l.96-.816c.633.75 1.546 1.11 2.458 1.11 1.495 0 2.408-.846 2.408-2.196 0-1.55-.958-2.07-2.263-2.07h-.862l.18-1.155h.588c1.07 0 2.067-.583 2.067-1.887 0-1.17-.913-1.82-2.05-1.82-.963 0-1.613.34-2.347 1.024l-.796-.896c.94-.896 2.05-1.305 3.22-1.305 2.135 0 3.467 1.27 3.467 2.783 0 1.366-1.008 2.362-2.117 2.57v.067c1.22.085 2.46.992 2.46 2.7 0 1.92-1.564 3.386-3.905 3.386zM70.863 69.36l.718 1.11-5.648 3.464 5.65 3.467-.785 1.093-6.154-3.858V73.2M79.797 78.98v-5.207H75.76v5.207h-1.53V67.864h1.53v4.638h4.037v-4.638h1.546V78.98M85.968 69.085v3.63h4.1v1.236h-4.1v3.826h5.01v1.204h-6.545V67.864h6.417l-.167 1.22M99.245 76.198h-4.278l-.863 2.783h-1.528l3.596-11.115h1.938l3.612 11.116h-1.63l-.847-2.782zm-3.903-1.255h3.528l-1.725-5.694h-.062l-1.74 5.693zM105.87 78.98h-2.587V67.864h2.407c2.637 0 5.26.88 5.26 5.5 0 4.658-2.722 5.616-5.08 5.616zm.16-9.895h-1.22v8.69h1.24c1.578 0 3.252-.81 3.252-4.41.017-3.775-1.74-4.28-3.27-4.28zM115 69.085v3.63h4.102v1.236H115v3.826h5.026v1.204h-6.557V67.864h6.427l-.178 1.22M127.4 74.08l3.256 4.9h-1.822l-2.96-4.703h-1.436v4.703h-1.528V67.864h2.93c2.766 0 4.232 1.06 4.232 3.142 0 1.658-1.175 2.688-2.67 3.075zm-1.43-5.027h-1.53v4.037h1.546c1.562 0 2.44-.57 2.44-2.083 0-1.384-.778-1.954-2.457-1.954zM139.348 73.2v1.435l-6.15 3.858-.784-1.092 5.648-3.466-5.648-3.465.716-1.11M35.384 92.784c0-3.68 1.254-5.746 3.68-5.746 2.424 0 3.678 2.066 3.678 5.746 0 3.69-1.254 5.757-3.678 5.757-2.426 0-3.68-2.065-3.68-5.756zm5.824 0c0-3.26-.795-4.576-2.145-4.576-1.334 0-2.15 1.317-2.15 4.576 0 3.253.816 4.587 2.15 4.587 1.35 0 2.145-1.333 2.145-4.586zm-2.145-1.06c-.605 0-1.06.473-1.06 1.06 0 .583.454 1.058 1.06 1.058.616 0 1.058-.475 1.058-1.058 0-.587-.44-1.06-1.057-1.06zM51.008 95.68v2.67h-1.45v-2.67H45.02v-1.042l3.254-7.6 1.24.504-2.93 6.966h2.973l.15-2.916h1.284v2.916h1.417v1.172M70.863 88.73l.718 1.11-5.648 3.465 5.65 3.466-.785 1.072-6.154-3.837V92.57M74.947 100.025l-1.204-.538 6.9-14.207 1.175.555M89.48 98.35v-5.21h-4.034v5.21h-1.534V87.234h1.534v4.637h4.033v-4.636h1.533V98.35M95.65 88.455v3.628h4.1v1.235h-4.1v3.823h5.01v1.21h-6.54V87.234h6.413l-.163 1.22M108.928 95.55h-4.278l-.863 2.8h-1.528l3.595-11.116h1.937l3.597 11.116h-1.61l-.852-2.8zm-3.904-1.237h3.532l-1.728-5.696h-.064l-1.74 5.696zM115.552 98.35h-2.603V87.234h2.424c2.637 0 5.257.875 5.257 5.5 0 4.654-2.715 5.616-5.078 5.616zm.163-9.895h-1.22v8.687h1.237c1.578 0 3.253-.812 3.253-4.407 0-3.777-1.754-4.28-3.27-4.28zM124.684 88.455v3.628h4.1v1.235h-4.1v3.823h5.03v1.21h-6.563V87.234h6.43l-.18 1.22M137.084 93.433l3.254 4.917h-1.82l-2.962-4.72h-1.434v4.72h-1.53V87.234h2.93c2.766 0 4.217 1.054 4.217 3.137-.002 1.664-1.156 2.69-2.656 3.063zm-1.434-5.012h-1.528v4.035h1.546c1.562 0 2.44-.584 2.44-2.084 0-1.382-.778-1.95-2.458-1.95zM149.013 92.57v1.435l-6.15 3.837-.766-1.07 5.65-3.467-5.65-3.466.7-1.11"/></svg>