<svg xmlns="http://www.w3.org/2000/svg" width="428.979" height="485.976" viewBox="0 0 428.979 485.976"><g fill="none" stroke="#5D5D5D" stroke-width="5" stroke-miterlimit="10"><path d="M174.506 392.165c-4.57 0-8.287 3.718-8.287 8.287 0 4.57 3.716 8.29 8.286 8.29h84.054c4.573 0 8.293-3.72 8.293-8.29 0-4.57-3.72-8.287-8.293-8.287h-84.054zM216.56 475.596c-11.738 0-21.678-7.844-24.58-19.007-15.088-2.193-26.547-15.135-26.547-30.573v-3.5h102.202v3.5c0 15.42-11.432 28.36-26.487 30.568-2.898 11.167-12.84 19.01-24.587 19.01zM167.66 371.153h97.13v-34.186l.5-.832c11.606-19.35 25.715-40.01 37.74-55.265 15.41-19.54 23.558-43.014 23.558-67.88 0-60.683-49.363-110.05-110.04-110.05-60.684 0-110.053 49.367-110.053 110.05 0 24.852 8.143 48.32 23.548 67.864 13.34 16.928 26.18 35.706 37.134 54.306l.484.822v35.17z"/></g><path fill="#5D5D5D" d="M34.273 127.67c17 8.814 34 17.63 51 26.443 2.858 1.482 5.387-2.833 2.524-4.317l-51-26.444c-2.858-1.482-5.387 2.833-2.524 4.317zM140.414 90.83l-30.442-48.72c-1.704-2.726-6.03-.218-4.317 2.525l30.442 48.72c1.704 2.726 6.03.22 4.317-2.524zM223.038 71.453c.33-19.147.662-38.293.993-57.44.057-3.226-4.943-3.22-5 0-.33 19.147-.66 38.293-.992 57.44-.056 3.226 4.945 3.22 5 0zM300.236 91.878c10.64-15.922 21.277-31.845 31.916-47.767 1.797-2.69-2.536-5.19-4.317-2.523-10.64 15.922-21.277 31.845-31.916 47.767-1.8 2.69 2.534 5.19 4.316 2.524zM396.92 123.69l-50.294 27.767c-2.823 1.558-.3 5.877 2.524 4.317l50.293-27.766c2.823-1.558.3-5.876-2.524-4.317zM364.332 224.138l57.407 2.19c3.225.124 3.213-4.876 0-5l-57.408-2.19c-3.226-.124-3.214 4.877 0 5zM338.87 299.518c14.93 11.99 29.864 23.977 44.796 35.966 2.488 1.998 6.05-1.517 3.536-3.536-14.932-11.99-29.865-23.977-44.797-35.966-2.49-1.998-6.05 1.517-3.536 3.536zM69.682 218.132l-57.294 4.2c-3.196.235-3.22 5.237 0 5l57.294-4.2c3.196-.234 3.22-5.236 0-5zM47.85 336.485l46.893-33.187c2.61-1.846.115-6.185-2.524-4.317L45.325 332.17c-2.608 1.846-.114 6.184 2.524 4.317z"/><g><path fill="none" stroke="#5D5D5D" stroke-width="5" stroke-miterlimit="10" d="M200.405 369.293l-23.74-114.51 4.82 19.358 24.87-16.64 3.18 27.01 14.657-39.085 10.584 30.195 18.736-8.566 3.245-13.4-22.444 114.77-33.908.87z"/></g></svg>