<svg xmlns="http://www.w3.org/2000/svg" width="229.293" height="198.99" viewBox="0 0 229.293 198.99"><path fill="#FFF" d="M113.47 76.946c20.908 0 37.857 16.95 37.857 37.857 0 13.895-7.49 26.034-18.65 32.62v1.698c0 10.61-8.6 25.612-19.207 25.612s-19.208-15.003-19.208-25.61v-1.7c-11.158-6.585-18.65-18.724-18.65-32.62 0-20.906 16.95-37.856 37.858-37.856m0-4c-23.08 0-41.857 18.777-41.857 41.857 0 13.967 7.093 27.107 18.654 34.83.127 6.022 2.47 12.907 6.32 18.53 4.666 6.816 10.662 10.57 16.883 10.57 6.22 0 12.217-3.754 16.883-10.57 3.85-5.623 6.193-12.51 6.32-18.53 11.562-7.724 18.654-20.864 18.654-34.83 0-23.08-18.777-41.857-41.857-41.857z"/><circle fill="none" stroke="#000" stroke-miterlimit="10" cx="113.47" cy="114.804" r="37.857"/><path fill="#4D4D4D" d="M105.557 150.76l-.195-8.76c-.07-2.918-.09-5.838-.128-8.757l-.1-8.758-.036-8.76-.006-1.456.848 1.2c.44.62.97 1.236 1.52 1.795.555.563 1.15 1.084 1.786 1.538.636.454 1.313.842 2.026 1.124.357.14.72.25 1.09.336.37.08.742.122 1.117.143.374.002.747-.01 1.118-.07.368-.07.737-.147 1.09-.286.36-.11.696-.298 1.036-.47.328-.197.66-.39.962-.636.627-.454 1.18-1.02 1.716-1.593l.755-.915.7-.967.848-1.174-.006 1.43-.037 8.76-.1 8.758c-.04 2.92-.06 5.84-.13 8.758l-.196 8.758-.196-8.758c-.068-2.92-.088-5.84-.128-8.758l-.1-8.758-.037-8.76.843.258-.72 1.018-.79.974c-.57.618-1.156 1.227-1.843 1.736-.33.27-.698.493-1.066.717-.383.198-.763.41-1.18.545-.405.162-.835.26-1.265.34-.434.074-.873.097-1.313.092-.44-.026-.873-.08-1.3-.176-.422-.102-.836-.232-1.236-.392-.8-.324-1.54-.76-2.223-1.255-.685-.496-1.314-1.056-1.896-1.658-.584-.607-1.12-1.23-1.613-1.94l.842-.256-.035 8.76-.1 8.757c-.04 2.92-.06 5.84-.128 8.758l-.195 8.76z" opacity=".5"/><path fill="none" stroke="#000" stroke-miterlimit="10" d="M94.26 147.672v1.45c0 10.608 8.6 25.61 19.21 25.61s19.208-15.002 19.208-25.61v-1.45H94.26z"/><path fill="#4D4D4D" d="M96.45 157.04l1.492-.096c.95-.04 2.307-.138 3.935-.183 1.628-.043 3.528-.126 5.564-.158 2.037-.042 4.208-.05 6.38-.06 2.17.01 4.342.016 6.377.058 2.036.03 3.935.115 5.564.16 1.63.043 2.986.143 3.936.183l1.493.097-1.494.097c-.95.04-2.307.14-3.935.184s-3.527.13-5.563.16c-2.036.043-4.207.05-6.378.06-2.172-.012-4.343-.02-6.38-.062-2.035-.03-3.934-.115-5.563-.16-1.628-.044-2.985-.142-3.935-.183l-1.493-.094zM94.315 150.76l1.63-.098c1.037-.04 2.52-.138 4.298-.183 1.78-.045 3.853-.128 6.077-.16 2.223-.042 4.594-.05 6.966-.06 2.37.01 4.743.016 6.966.058 2.223.03 4.298.115 6.077.16 1.777.044 3.26.143 4.297.183l1.63.098-1.63.097c-1.037.04-2.52.14-4.298.184-1.78.043-3.854.128-6.078.158-2.223.043-4.594.05-6.966.06-2.37-.012-4.743-.02-6.966-.062-2.223-.03-4.298-.115-6.077-.16-1.778-.044-3.26-.142-4.298-.182l-1.63-.095zM99.65 163.166l1.173-.097c.746-.04 1.81-.14 3.09-.184 1.277-.044 2.77-.127 4.367-.16 1.598-.04 3.302-.05 5.007-.06 1.704.01 3.41.017 5.007.06 1.598.03 3.09.114 4.368.158 1.278.044 2.344.144 3.09.184l1.17.097-1.17.097c-.747.04-1.812.14-3.09.184s-2.77.13-4.368.16c-1.598.04-3.302.048-5.007.058-1.704-.01-3.41-.018-5.007-.06-1.598-.032-3.09-.116-4.368-.16-1.278-.045-2.344-.143-3.09-.183l-1.17-.094zM104.986 170.664s.26-.044.713-.097c.453-.043 1.1-.133 1.88-.19 1.555-.126 3.63-.21 5.705-.213 2.075.003 4.15.085 5.706.213.78.056 1.428.147 1.88.19.455.053.714.097.714.097s-.26.044-.713.097c-.453.044-1.1.135-1.88.19-1.555.128-3.63.21-5.705.214-2.075-.004-4.15-.087-5.706-.214-.78-.056-1.428-.146-1.88-.19-.455-.052-.714-.096-.714-.096z"/><path opacity=".7" fill="none" d="M113.47 76.946c-.186 0-.368.012-.553.014v97.75c.184.008.367.023.553.023 10.61 0 19.208-15.003 19.208-25.61v-1.7c11.16-6.585 18.65-18.724 18.65-32.62 0-20.907-16.95-37.857-37.858-37.857z"/><g><path fill="none" stroke="#000" stroke-miterlimit="10" d="M112.917 63.25V11.07M154.81 81.697L191.706 44.8M154.81 149.25l36.896 36.895M163.596 114.804h52.18M70.277 81.697L33.38 44.8M70.277 149.25L33.38 186.144M61.49 114.804H9.31"/></g></svg>