<svg xmlns="http://www.w3.org/2000/svg" width="428.979" height="485.976" viewBox="0 0 428.979 485.976"><g fill="#444242"><path d="M258.56 415.742h-84.054c-8.43 0-15.287-6.86-15.287-15.29s6.856-15.287 15.286-15.287h84.054c8.433 0 15.293 6.857 15.293 15.287s-6.86 15.29-15.293 15.29zm-84.054-23.577c-4.57 0-8.287 3.718-8.287 8.287 0 4.57 3.716 8.29 8.286 8.29h84.054c4.573 0 8.293-3.72 8.293-8.29 0-4.57-3.72-8.287-8.293-8.287h-84.054zM216.56 475.596c-11.738 0-21.678-7.844-24.58-19.007-15.088-2.193-26.547-15.135-26.547-30.573v-3.5h102.202v3.5c0 15.42-11.432 28.36-26.487 30.568-2.898 11.167-12.84 19.01-24.587 19.01zm-43.87-46.08c1.637 11.028 10.89 19.693 22.4 20.36l2.835.163.424 2.807c1.377 9.126 9.037 15.75 18.21 15.75 9.18 0 16.84-6.623 18.215-15.75l.423-2.805 2.832-.167c11.482-.677 20.712-9.342 22.346-20.358H172.69zM271.79 378.153H160.66v-40.26c-10.688-18.065-23.162-36.27-36.115-52.706-16.388-20.79-25.05-45.757-25.05-72.198 0-64.543 52.51-117.05 117.053-117.05 64.536 0 117.04 52.507 117.04 117.05 0 26.455-8.666 51.426-25.062 72.214-11.68 14.817-25.37 34.833-36.736 53.702v39.247zm-104.13-7h97.13v-34.186l.5-.832c11.606-19.35 25.715-40.01 37.74-55.265 15.41-19.54 23.558-43.014 23.558-67.88 0-60.683-49.363-110.05-110.04-110.05-60.684 0-110.053 49.367-110.053 110.05 0 24.852 8.143 48.32 23.548 67.864 13.34 16.928 26.18 35.706 37.134 54.306l.484.822v35.17z"/><path d="M179.06 249.86l26.58 121.32-7.815 1.712-26.58-121.32zM254.118 249.986l6.843 1.467-26.567 123.944-6.844-1.467zM197.49 450.034h39.334v7H197.49z"/><path d="M210.292 292.403l-7-26.836-19.026 12.73-2.78-4.156 24.868-16.64 5 19.165 12.837-31.24 10.585 30.196 18.737-8.566 2.078 4.547-23.72 10.847-8.05-22.965M220.917 71.533c-1.657 0-3-1.343-3-3v-52c0-1.657 1.343-3 3-3s3 1.343 3 3v52c0 1.657-1.343 3-3 3zM300.602 91.003c-.53 0-1.065-.14-1.552-.435-1.417-.858-1.87-2.703-1.01-4.12l26.95-44.47c.86-1.418 2.7-1.873 4.12-1.012 1.417.858 1.87 2.703 1.01 4.12l-26.95 44.47c-.564.932-1.554 1.447-2.568 1.447zM350.114 153.772c-1.082 0-2.127-.587-2.662-1.612-.767-1.47-.198-3.28 1.27-4.048l46.1-24.062c1.47-.768 3.28-.196 4.047 1.27.766 1.47.197 3.282-1.27 4.05l-46.1 24.06c-.443.233-.92.342-1.386.342zM416.996 227.873c-.064 0-.13-.002-.194-.006l-51.894-3.314c-1.653-.105-2.908-1.53-2.803-3.185.105-1.653 1.527-2.895 3.185-2.803l51.894 3.314c1.653.105 2.908 1.53 2.803 3.185-.1 1.587-1.422 2.808-2.99 2.808zM383.888 332.595c-.592 0-1.19-.175-1.712-.54l-42.662-29.73c-1.36-.947-1.693-2.816-.746-4.176.946-1.36 2.816-1.694 4.176-.747l42.662 29.73c1.36.948 1.693 2.817.746 4.177-.583.837-1.516 1.285-2.464 1.285zM133.67 91.003c-1.015 0-2.004-.515-2.568-1.446l-26.952-44.47c-.86-1.417-.406-3.262 1.01-4.12 1.418-.86 3.263-.406 4.12 1.01l26.953 44.472c.86 1.415.406 3.26-1.01 4.12-.487.293-1.024.433-1.553.433zM84.158 153.772c-.468 0-.942-.11-1.386-.34l-46.098-24.063c-1.47-.768-2.038-2.58-1.272-4.05.768-1.468 2.58-2.036 4.048-1.27l46.098 24.062c1.47.767 2.038 2.58 1.27 4.048-.534 1.025-1.58 1.612-2.66 1.612zM17.275 227.873c-1.57 0-2.89-1.22-2.99-2.81-.107-1.653 1.148-3.08 2.802-3.185l51.895-3.314c1.662-.103 3.08 1.15 3.186 2.803.105 1.654-1.15 3.08-2.803 3.185l-51.895 3.314c-.066.005-.13.007-.195.007zM50.383 332.595c-.948 0-1.88-.448-2.464-1.285-.948-1.36-.614-3.228.745-4.176l42.663-29.73c1.358-.948 3.228-.615 4.177.745.947 1.358.613 3.228-.746 4.175l-42.664 29.73c-.523.366-1.12.54-1.713.54z"/></g></svg>