<svg xmlns="http://www.w3.org/2000/svg" width="275.758" height="201.01" viewBox="0 0 275.758 201.01"><path fill="#F0F1F1" d="M268.955 179.063c0 8.734-7.073 15.81-15.793 15.81h-63.24c-8.72 0-15.793-7.076-15.793-15.81V42.066c0-8.732 7.073-15.81 15.793-15.81h63.24c8.72 0 15.792 7.077 15.792 15.81v136.997z"/><path fill="#4AC3AF" d="M179.388 57.877v81.334l42.606-81.333"/><path fill="#21B2D1" d="M179.388 161.916v1.337h77.04l-55.414-42.615"/><path fill="#FBE158" d="M233.89 57.877l-29.15 55.645 58.956 45.358V57.877"/><path fill="#B6BCBD" d="M205.732 44.704c0 1.453-1.168 2.638-2.637 2.638-1.452 0-2.622-1.185-2.622-2.638 0-1.453 1.17-2.638 2.622-2.638 1.47 0 2.637 1.186 2.637 2.638zM242.61 44.704c0 1.453-1.168 2.638-2.62 2.638h-26.345c-1.456 0-2.637-1.185-2.637-2.638 0-1.453 1.18-2.638 2.637-2.638h26.344c1.452 0 2.62 1.186 2.62 2.638z"/><path fill="#CFD3D4" d="M232.077 179.063c0 5.812-4.72 10.534-10.535 10.534-5.816 0-10.534-4.72-10.534-10.534 0-5.83 4.718-10.534 10.534-10.534 5.816 0 10.535 4.704 10.535 10.533z"/><path fill="#FFF" d="M216.267 173.788h10.547v10.534h-10.547z"/><path fill="#F0F1F1" d="M204.74 113.522l29.15-55.645h-11.896l-42.606 81.334v22.706l21.626-41.278 55.415 42.615h7.266v-4.373"/><path fill="#DF2C2C" d="M255.783 88.17c0 9.454-17.12 41.1-17.12 41.1s-17.12-31.646-17.12-41.1c0-9.455 7.665-17.12 17.12-17.12 9.454-.002 17.12 7.665 17.12 17.12z"/><path fill="#FFF" d="M246.306 88.17c0 4.217-3.425 7.642-7.643 7.642s-7.64-3.425-7.64-7.643c0-4.22 3.422-7.64 7.64-7.64s7.643 3.42 7.643 7.64z"/><g><path fill="#192947" d="M221.102 150.787c0 5.358-4.345 9.703-9.704 9.703H17.472c-5.357 0-9.704-4.345-9.704-9.703V15.04c0-5.354 4.347-9.683 9.704-9.683h193.926c5.36 0 9.704 4.33 9.704 9.683v135.747z"/><path fill="#E2E4E5" d="M85.354 160.49h58.167v24.852H85.355z"/><path fill="#F0F1F1" d="M162.92 190.193c0 2.665-2.186 4.85-4.85 4.85H70.8c-2.665 0-4.85-2.185-4.85-4.85 0-2.688 2.167-4.854 4.85-4.854h87.27c2.664 0 4.85 2.165 4.85 4.853z"/><path fill="#E2E4E5" d="M221.102 150.787v-29.08H7.768v29.08c0 5.358 4.347 9.703 9.704 9.703h193.926c5.36 0 9.704-4.345 9.704-9.703z"/><path fill="#CFD3D4" d="M114.435 147.322c-3.105 0-5.625-2.522-5.625-5.618 0-3.105 2.528-5.626 5.625-5.626 3.1 0 5.626 2.52 5.626 5.626 0 3.096-2.52 5.618-5.625 5.618zm0-8.366c-1.517 0-2.745 1.23-2.745 2.748 0 1.51 1.23 2.746 2.745 2.746 1.518 0 2.745-1.235 2.745-2.746 0-1.518-1.228-2.748-2.745-2.748z"/><path fill="#2B446B" d="M7.768 14.748v106.65H73.52L189.867 5.048H17.472c-5.358 0-9.704 4.347-9.704 9.7z"/><path fill="#FFF" d="M32.49 30.014c0-3.68 1.255-5.746 3.68-5.746 2.425 0 3.68 2.066 3.68 5.746 0 3.695-1.255 5.762-3.68 5.762-2.425 0-3.68-2.067-3.68-5.762zm5.826 0c0-3.255-.795-4.57-2.145-4.57-1.333 0-2.148 1.316-2.148 4.57 0 3.253.815 4.59 2.15 4.59 1.35-.016 2.144-1.337 2.144-4.59zm-2.145-1.06c-.604 0-1.058.476-1.058 1.06 0 .587.454 1.058 1.06 1.058.615 0 1.057-.47 1.057-1.058 0-.584-.443-1.06-1.06-1.06zM45.803 26.093l-2.667 1.612-.7-1.042 3.546-2.215h1.304v9.927h2.28v1.205h-6.497v-1.205h2.733M67.97 25.964l.718 1.104-5.65 3.45L68.69 34l-.784 1.075-6.153-3.84V29.8M76.904 35.58v-5.208h-4.036v5.208h-1.53V24.464h1.53V29.1h4.036v-4.636h1.546V35.58M85.32 25.752v9.828h-1.53v-9.828h-3.453v-1.288h8.466l-.16 1.288M97.182 35.58l-.324-5.696c-.08-1.562-.08-3.37-.062-3.73h-.052l-1.756 7.443h-1.48l-1.842-7.442h-.062c0 .358.03 2.28-.033 3.73l-.28 5.695h-1.415l.638-11.116h2.032l1.71 7.42h.065l1.626-7.42H98l.633 11.116h-1.45zM101.202 35.58V24.464h1.53v9.782h5.062l-.18 1.334M117.09 29.8v1.434l-6.154 3.84-.78-1.073 5.645-3.482-5.644-3.45.716-1.104M32.49 49.366c0-3.68 1.255-5.746 3.68-5.746 2.425 0 3.68 2.066 3.68 5.746 0 3.708-1.255 5.775-3.68 5.775-2.425 0-3.68-2.066-3.68-5.774zm5.826 0c0-3.24-.795-4.558-2.145-4.558-1.333 0-2.148 1.317-2.148 4.558 0 3.27.815 4.587 2.15 4.587 1.35 0 2.144-1.317 2.144-4.587zm-2.145-1.042c-.604 0-1.058.47-1.058 1.042 0 .6.454 1.074 1.06 1.074.615 0 1.057-.474 1.057-1.074 0-.57-.443-1.042-1.06-1.042zM44.095 53.696h5.046l-.18 1.253h-6.606v-1.193c3.84-3.808 5.012-5.337 5.012-7.012 0-1.203-.796-1.87-1.888-1.87-.913 0-1.545.325-2.228 1.188l-1.025-.733c.86-1.075 1.97-1.708 3.337-1.708 2.033 0 3.336 1.283 3.336 3.075 0 1.936-1.533 3.874-4.803 7zM67.97 45.313l.718 1.124-5.65 3.45 5.65 3.466-.784 1.087-6.153-3.837V49.17M74.598 54.948h-3.063V43.816h2.833c1.983 0 3.972.633 3.972 2.812 0 1.417-1.01 2.167-1.938 2.38v.062c1.11.197 2.425.85 2.425 2.688-.018 2.44-2.147 3.19-4.23 3.19zm.028-9.91h-1.562v3.482h1.695c1.3 0 2.017-.537 2.017-1.792-.018-1.237-.813-1.69-2.15-1.69zm.245 4.703h-1.807v3.955h1.74c1.093 0 2.393-.31 2.393-1.905 0-1.628-1.042-2.05-2.325-2.05zM84.57 55.14c-2.733 0-4.132-2.274-4.132-5.74 0-3.388 1.398-5.78 4.132-5.78 2.733 0 4.134 2.31 4.134 5.762 0 3.4-1.4 5.76-4.134 5.76zm0-10.253c-1.808 0-2.537 1.58-2.537 4.512 0 2.945.78 4.473 2.537 4.473 1.81 0 2.538-1.546 2.538-4.49 0-2.93-.73-4.496-2.538-4.496zM93.294 54.948h-2.586V43.816h2.425c2.62 0 5.24.897 5.24 5.517 0 4.636-2.72 5.615-5.08 5.615zm.164-9.894h-1.222v8.674h1.238c1.595 0 3.27-.8 3.27-4.395 0-3.79-1.757-4.28-3.286-4.28zM104.7 50.666v4.282h-1.543v-4.265l-3.74-6.867h1.69l2.845 5.433h.05l2.85-5.434h1.608M117.09 49.17v1.433l-6.154 3.837-.78-1.087 5.645-3.467-5.644-3.45.716-1.123M32.49 68.73c0-3.68 1.255-5.745 3.68-5.745 2.425 0 3.68 2.066 3.68 5.746 0 3.696-1.255 5.763-3.68 5.763-2.425 0-3.68-2.067-3.68-5.762zm5.826 0c0-3.236-.795-4.57-2.145-4.57-1.333 0-2.148 1.333-2.148 4.57 0 3.272.815 4.592 2.15 4.592 1.35 0 2.144-1.338 2.144-4.59zm-2.145-1.04c-.604 0-1.058.458-1.058 1.04 0 .606.454 1.075 1.06 1.075.615 0 1.057-.47 1.057-1.074 0-.583-.443-1.04-1.06-1.04zM45.415 74.493c-1.287 0-2.62-.454-3.467-1.495l.96-.817c.632.75 1.545 1.11 2.457 1.11 1.495 0 2.408-.845 2.408-2.195 0-1.55-.958-2.07-2.263-2.07h-.862l.18-1.155h.587c1.07 0 2.067-.583 2.067-1.887 0-1.17-.913-1.82-2.05-1.82-.963 0-1.613.34-2.347 1.024l-.795-.897c.94-.896 2.05-1.305 3.22-1.305 2.135 0 3.467 1.27 3.467 2.784 0 1.365-1.007 2.36-2.116 2.57v.066c1.222.085 2.46.992 2.46 2.7 0 1.92-1.563 3.387-3.905 3.387zM67.97 64.677l.718 1.108-5.65 3.466 5.65 3.468-.784 1.092-6.153-3.858v-1.434M76.904 74.297V69.09h-4.036v5.207h-1.53V63.18h1.53v4.64h4.036v-4.64h1.546v11.117M83.075 64.402v3.63h4.1v1.236h-4.1v3.825h5.012v1.204H81.54V63.18h6.418l-.167 1.222M96.353 71.514h-4.278l-.863 2.783h-1.528L93.28 63.18h1.938l3.612 11.117H97.2l-.847-2.783zM92.45 70.26h3.527l-1.725-5.694h-.062l-1.74 5.694zM102.978 74.297h-2.587V63.18h2.408c2.637 0 5.26.88 5.26 5.5 0 4.66-2.722 5.617-5.08 5.617zm.16-9.895h-1.22v8.69h1.24c1.578 0 3.252-.81 3.252-4.41.017-3.775-1.74-4.28-3.27-4.28zM112.106 64.402v3.63h4.104v1.236h-4.104v3.825h5.028v1.204h-6.558V63.18h6.43l-.18 1.222M124.51 69.398l3.254 4.9h-1.822l-2.96-4.704h-1.436v4.703h-1.528V63.18h2.93c2.766 0 4.232 1.06 4.232 3.143 0 1.658-1.175 2.687-2.67 3.075zm-1.434-5.03h-1.53v4.038h1.547c1.562 0 2.44-.57 2.44-2.083 0-1.383-.777-1.954-2.457-1.954zM136.455 68.518v1.434l-6.15 3.858-.784-1.092 5.65-3.467-5.65-3.465.717-1.108M32.49 88.1c0-3.68 1.255-5.745 3.68-5.745 2.425 0 3.68 2.066 3.68 5.746 0 3.692-1.255 5.758-3.68 5.758-2.425 0-3.68-2.066-3.68-5.757zm5.826 0c0-3.258-.795-4.575-2.145-4.575-1.333 0-2.148 1.317-2.148 4.576 0 3.254.815 4.588 2.15 4.588 1.35 0 2.144-1.334 2.144-4.587zm-2.145-1.058c-.604 0-1.058.472-1.058 1.06 0 .582.454 1.057 1.06 1.057.615 0 1.057-.476 1.057-1.06 0-.586-.443-1.058-1.06-1.058zM48.115 90.996v2.67h-1.45v-2.67h-4.536v-1.042l3.252-7.6 1.238.505-2.93 6.965h2.974l.152-2.916H48.1v2.915h1.415v1.17M67.97 84.046l.718 1.11-5.65 3.465 5.65 3.468-.784 1.07-6.153-3.836v-1.434M72.055 95.342l-1.204-.538 6.9-14.208 1.176.556M86.587 93.667v-5.21h-4.033v5.21H81.02V82.55h1.534v4.638h4.033V82.55h1.533v11.117M92.757 83.772V87.4h4.1v1.235h-4.1v3.823h5.012v1.21h-6.542V82.55h6.413l-.162 1.222M106.035 90.866h-4.278l-.863 2.8h-1.528l3.596-11.116h1.937l3.596 11.116h-1.608l-.853-2.8zm-3.903-1.236h3.532l-1.728-5.696h-.064l-1.74 5.696zM112.66 93.667h-2.604V82.55h2.425c2.638 0 5.258.876 5.258 5.5 0 4.654-2.716 5.617-5.08 5.617zm.162-9.895h-1.22v8.687h1.237c1.577 0 3.252-.813 3.252-4.408 0-3.777-1.753-4.28-3.27-4.28zM121.792 83.772V87.4h4.1v1.235h-4.1v3.823h5.028v1.21h-6.56V82.55h6.428l-.18 1.222M134.19 88.75l3.255 4.917h-1.82l-2.962-4.72h-1.434v4.72h-1.53V82.55h2.93c2.765 0 4.216 1.055 4.216 3.138 0 1.663-1.155 2.688-2.655 3.062zm-1.432-5.012h-1.528v4.034h1.546c1.56 0 2.44-.584 2.44-2.084 0-1.384-.778-1.95-2.458-1.95zM146.12 87.888v1.434l-6.15 3.837-.766-1.072 5.65-3.467-5.65-3.464.7-1.11"/></g></svg>