<svg xmlns="http://www.w3.org/2000/svg" width="381" height="503" viewBox="0 0 381 503"><path fill="#BDCA00" d="M19.5 34.5h347v455h-347z"/><path fill="#192947" d="M348.78 5.5H33.27C16.86 5.5 3.5 18.868 3.5 35.277v434.59c0 16.41 13.36 29.752 29.77 29.752h315.51c16.434 0 29.77-13.343 29.77-29.752V35.278c0-16.435-13.335-29.778-29.77-29.778zM191.04 22.63c2.446 0 4.455 2.003 4.455 4.455 0 2.47-2.008 4.454-4.454 4.454-2.476 0-4.478-2.01-4.478-4.455 0-2.477 2.002-4.454 4.48-4.454zm0 460.63c-4.953 0-8.938-4.01-8.938-8.938 0-4.922 3.985-8.933 8.94-8.933 4.92 0 8.906 4.01 8.906 8.932 0 4.928-3.984 8.94-8.907 8.94zm163.702-27.546H27.308V49.404h327.434v406.31zm0 0"/><g opacity=".18" fill="#231F20"><path d="M105.935 300.73c-9.93-9.803-3.74-38.433 2.32-57.908 1.678-5.675 18.057-51.46 18.186-51.975 2.45-6.19-20.376-6.448-20.505-6.062-2.966 13.67-14.187 50.298-16.25 57.52-1.032 3.482-1.935 6.836-2.708 10.06l-13.542-.387c12.252-43.334 19.216-59.713 19.86-61.518 1.677-5.416-20.376-7.093-20.505-6.577-2.708 12.123-6.706 27.213-17.798 67.45-2.966 0-4.9-.128-5.16-.128-3.997.258-6.32 7.093-4.642 10.317h.13c2.32.13 4.513.258 6.834.258l-1.548 5.417c-5.804 21.022 4.514 24.117 13.542 22.57 0 0-.387-1.55 4.385-19.733l2.45-9.285c6.06-.775 11.09-1.936 14.96-3.613-6.32 28.502-4.256 45.913 7.867 53.65 23.988 15.22 75.576-27.34 118.393 20.636 6.062 6.577 17.54-17.41 16.637-18.185-42.557-38.948-103.56 6.707-122.905-12.51z"/><path d="M265.184 227.087c-1.29 0-2.32.13-3.095.258l-1.936-2.45c-5.545-6.19-30.307 4.77-38.433 31.08-.55 1.792-.934 3.577-1.167 5.338-.12.23-.247.47-.378.724-4.385 8.254-7.35 12.64-9.802 14.573-2.837 1.935-3.87 1.548-3.095-3.095 1.42-8.512 7.867-29.147 13.928-47.59 5.933-18.313 12.64-34.563 12.768-35.078 2.45-6.19-20.377-6.448-20.506-6.062-2.967 13.67-5.158 20.248-10.06 35.982-3.82 12.437-8.098 28.287-10.73 38.654-.114-1.76-.848-1.073-3.08 3.038-4.256 8.254-7.48 13.412-9.93 15.347-2.45 1.934-3.74 2.063-2.967-2.967 1.42-8.64 14.354-61.26 20.415-79.832l3.482-10.833h3.612c26.437-.258 52.618-18.443 57.906-38.433 4.256-16.38-13.155-30.437-27.084-27.212-15.476 3.61-32.5 14.83-50.17 58.036-19.99-5.417-39.464-15.863-53.134-10.06-8.254 3.482 5.546 22.44 6.577 21.925 13.8-6.578 23.988-5.418 43.72-4.644-2.322 6.19-11.128 45.01-13.45 52.233-3.18 9.802-5.218 17.962-6.4 24.712-.37.6-.812 1.4-1.34 2.424-7.054 13.49-23.02 21.164-28.217 20.174-4.208-.62-3.96-7.426-1.733-17.203 15.1-10.52 33.17-26.238 34.53-33.91.99-5.447-12.624-12.377-14.357-14.11-5.446-5.446-29.208 14.356-36.758 39.11-5.074 16.46 2.228 32.55 13.243 32.55 9.968 0 26.23-10.723 33.742-22.894-1.65 14.814 1.63 21.056 5.355 22.41 3.095 1.29 7.093.13 11.865-5.158 4.256-4.514 8.383-11.993 12.252-18.958.376-.658.682-1.26.932-1.808-.097.388-.19.767-.278 1.13-3.095 12.638-.774 23.084 4.514 25.277 2.837 1.16 8.254-1.548 13.155-6.835 3.77-4.122 7.538-10.18 11.208-16.405.405 12.836 8.55 23.24 17.423 23.24 11.22 0 30.567-9.93 37.66-32.628 5.42-16.768.003-30.053-10.186-30.053zm-131.823 30.13c4.085-14.48 11.635-37.377 16.71-34.777 3.712 1.98-4.704 25.867-17.947 39.11.372-1.363.743-2.848 1.238-4.333zm98.965-133.787c9.543-1.934 13.8 8.383 11.09 23.214-2.836 16.637-18.183 32.758-38.174 33.016h-3.095c13.543-40.625 19.605-54.167 30.18-56.23zm23.316 133.707c-4.384 15.09-8.898 29.147-15.733 29.147-5.288 0-2.708-15.218 1.677-30.308 4.9-17.282 10.834-30.307 17.41-26.954.517.387 1.032.774 1.55 1.418 1.803 3.87-1.292 13.8-4.903 26.697zM295.148 268.305c-6.925-.086-10.04 4.845-10.064 8.012.147 3.575 3.616 7.777 10.74 7.877 6.952-.307 10.07-5.24 10.09-8.406-.146-3.575-3.616-7.778-10.766-7.483zM308.365 141.097c-7.35 54.344-9.41 83.905-13.453 105.012-1.897 10.164 6.77 7.995 7.356 5.264 5.342-28.343 16.104-54.922 34.81-110.257.77-2.52-28.31-2.962-28.713-.02z"/></g><path fill="#FFF" d="M50.925 261.877l1.548-5.417c-2.32 0-4.514-.13-6.835-.258h-.13c-1.676-3.224.646-10.06 4.644-10.317.258 0 2.192.13 5.16.13 11.09-40.24 15.088-55.33 17.797-67.452.128-.516 22.182 1.16 20.505 6.577-.645 1.806-7.61 18.185-19.86 61.518l13.54.387c.775-3.224 1.678-6.577 2.71-10.06 2.062-7.222 13.283-43.85 16.25-57.52.128-.387 22.956-.13 20.505 6.062-.13.516-16.508 46.3-18.185 51.975-6.06 19.474-12.252 48.105-2.32 57.907 19.344 19.216 80.347-26.44 122.906 12.51.904.773-10.574 24.76-16.636 18.184-42.817-47.976-94.405-5.417-118.393-20.635-12.122-7.74-14.185-25.15-7.866-53.652-3.87 1.677-8.9 2.837-14.96 3.612l-2.45 9.285c-4.772 18.185-4.385 19.732-4.385 19.732-9.03 1.547-19.35-1.548-13.545-22.57z"/><path fill="#FFF" d="M131.204 260.808c-2.228 9.777-2.475 16.585 1.733 17.203 5.198.99 21.164-6.683 28.218-20.173 2.228-4.332 2.97-4.703 2.97-2.475 0 .742-.37 2.475-1.856 5.074-7.18 12.624-24.135 24.01-34.408 24.01-11.015 0-18.317-16.09-13.243-32.55 7.55-24.753 31.31-44.555 36.757-39.11 1.733 1.734 15.347 8.664 14.357 14.11-1.36 7.674-19.43 23.392-34.53 33.912zm1.238-4.58c13.243-13.242 21.66-37.13 17.946-39.11-5.074-2.598-12.624 20.298-16.708 34.778-.496 1.485-.867 2.97-1.238 4.332z"/><path fill="#FFF" d="M168.894 230.7c2.322-7.222 11.128-46.043 13.45-52.233-19.732-.774-29.92-1.934-43.72 4.643-1.032.516-14.83-18.443-6.577-21.925 13.67-5.804 33.145 4.643 53.135 10.06 17.67-43.205 34.693-54.425 50.17-58.036 13.928-3.225 31.34 10.832 27.083 27.21-5.288 19.99-31.47 38.176-57.907 38.434h-3.612l-3.482 10.833c-6.06 18.57-18.996 71.19-20.414 79.832-.774 5.03.516 4.9 2.966 2.966 2.45-1.935 5.675-7.093 9.93-15.347 2.452-4.516 3.096-4.902 3.096-2.452 0 .645-.387 2.45-1.935 5.158-3.87 6.965-7.996 14.444-12.252 18.958-4.772 5.288-8.77 6.448-11.865 5.16-5.675-2.063-10.318-15.476 1.934-53.264zm33.57-56.36h3.096c19.99-.258 35.337-16.38 38.175-33.016 2.71-14.83-1.548-25.15-11.09-23.214-10.577 2.063-16.64 15.605-30.18 56.23z"/><path fill="#FFF" d="M203.727 215.448c4.9-15.734 7.093-22.312 10.06-35.982.13-.387 22.957-.13 20.506 6.062-.13.516-6.835 16.766-12.768 35.08-6.062 18.442-12.51 39.077-13.928 47.588-.774 4.643.258 5.03 3.095 3.095 2.45-1.933 5.417-6.318 9.802-14.572 2.32-4.513 3.095-4.9 3.095-2.58 0 .774-.388 2.58-1.936 5.29-3.998 6.835-8.125 13.67-12.252 18.184-4.9 5.288-10.317 7.996-13.155 6.835-5.288-2.192-7.61-12.638-4.514-25.278 2.32-9.545 7.48-29.02 11.994-43.722z"/><path fill="#FFF" d="M262.407 222.026c.774-.13 1.806-.258 3.095-.258 10.188 0 15.605 13.284 10.188 30.05-7.093 22.7-26.44 32.63-37.66 32.63-11.22 0-21.28-16.638-15.99-33.79 8.124-26.31 32.886-37.273 38.432-31.083l1.935 2.45zm-1.548 3.095c-.517-.644-1.033-1.03-1.55-1.417-6.576-3.353-12.51 9.673-17.41 26.954-4.385 15.09-6.964 30.308-1.677 30.308 6.835 0 11.35-14.058 15.734-29.147 3.613-12.898 6.708-22.828 4.902-26.697zM306.232 270.468c-.022 3.167-3.138 8.1-10.09 8.406-7.123-.1-10.593-4.302-10.74-7.877.023-3.167 3.14-8.098 10.064-8.012 7.15-.295 10.62 3.908 10.766 7.483zm31.164-134.672c-18.706 55.335-29.47 81.914-34.81 110.257-.585 2.73-9.253 4.9-7.356-5.265 4.044-21.106 6.103-50.668 13.453-105.012.403-2.942 29.483-2.5 28.713.02z"/><g fill="#BDCA00"><path d="M75.672 186.935c-.987 6.154-2.42 12.213-3.942 18.233-1.513 6.024-3.18 12-4.878 17.962-1.705 5.96-3.453 11.902-5.213 17.84-1.73 5.948-3.486 11.876-5.048 17.902.198-3.112.66-6.2 1.166-9.274.268-1.534.56-3.064.86-4.592.298-1.528.643-3.045.977-4.565 1.352-6.074 2.95-12.082 4.656-18.053 1.713-5.97 3.534-11.902 5.46-17.8 1.902-5.908 3.89-11.78 5.962-17.652zM216.655 184.744c-.987 6.154-2.42 12.214-3.942 18.233-1.512 6.025-3.18 12-4.878 17.962-1.705 5.96-3.454 11.9-5.213 17.838-1.73 5.95-3.486 11.876-5.048 17.902.198-3.112.66-6.2 1.166-9.273.268-1.534.56-3.064.86-4.592.298-1.528.643-3.045.977-4.565 1.352-6.075 2.95-12.083 4.656-18.054 1.712-5.97 3.533-11.902 5.458-17.8 1.905-5.908 3.893-11.78 5.965-17.652zM310.298 208.89c.53-3.04 1.186-6.053 1.885-9.056.698-3.003 1.436-5.996 2.2-8.983 1.562-5.962 3.22-11.9 4.942-17.82l2.582-8.88c.877-2.957 1.847-5.885 2.914-8.778.548-1.442 1.09-2.886 1.654-4.322.58-1.43 1.142-2.866 1.76-4.283 1.206-2.842 2.484-5.657 3.922-8.406l.254.095c-.712 3.018-1.533 5.99-2.382 8.95-.412 1.483-.87 2.95-1.297 4.428l-1.346 4.41c-.915 2.934-1.892 5.846-2.93 8.74-1.05 2.888-2.07 5.79-3.063 8.698-1.973 5.824-3.886 11.67-5.706 17.542-1.85 5.865-3.625 11.755-5.12 17.72l-.266-.053zM132.01 228.188c-2.403 3.38-4.456 6.883-6.243 10.516-1.786 3.63-3.31 7.373-4.578 11.196-1.26 3.824-2.282 7.73-2.88 11.7-.3 1.986-.486 3.987-.474 5.994.018 2.004.22 4.024.942 5.972-.63-.83-1.098-1.788-1.462-2.78-.37-.993-.62-2.028-.804-3.07-.36-2.092-.423-4.22-.32-6.325.225-4.215 1.114-8.36 2.43-12.342 1.322-3.98 3.088-7.813 5.292-11.376 2.21-3.544 4.862-6.864 8.095-9.484zM239.905 228.478c-2.402 3.38-4.455 6.883-6.242 10.516-1.787 3.63-3.31 7.373-4.578 11.196-1.26 3.825-2.28 7.73-2.88 11.7-.298 1.986-.484 3.987-.473 5.994.018 2.004.22 4.024.942 5.973-.628-.83-1.097-1.79-1.462-2.78-.37-.993-.62-2.028-.804-3.07-.36-2.092-.423-4.22-.32-6.325.225-4.216 1.114-8.36 2.43-12.343 1.322-3.982 3.088-7.814 5.292-11.377 2.21-3.546 4.863-6.866 8.095-9.485zM203.73 141.577c-.843 1.024-1.53 2.154-2.165 3.31-.638 1.152-1.22 2.336-1.77 3.534-1.1 2.398-2.115 4.834-3.06 7.3-.96 2.457-1.875 4.934-2.75 7.425-.873 2.492-1.75 4.983-2.58 7.49-1.65 5.02-3.297 10.04-4.835 15.098-1.565 5.048-3.102 10.106-4.563 15.187-1.507 5.067-2.946 10.154-4.355 15.25-1.444 5.086-2.782 10.2-4.142 15.31-.675 2.556-1.31 5.12-1.955 7.684s-1.26 5.134-1.843 7.71c-.6 2.574-1.147 5.158-1.637 7.754-.245 1.298-.466 2.6-.642 3.908-.18 1.307-.326 2.622-.294 3.948-.19-1.316-.158-2.656-.115-3.985.06-1.33.173-2.657.307-3.98.27-2.646.663-5.276 1.074-7.9.867-5.243 1.897-10.453 3.05-15.635.565-2.593 1.16-5.18 1.793-7.757.625-2.58 1.268-5.153 1.925-7.723 1.34-5.135 2.765-10.246 4.235-15.345 1.516-5.085 3.068-10.16 4.724-15.204 1.685-5.033 3.39-10.062 5.287-15.025 1.868-4.97 3.875-9.896 6.097-14.73 1.132-2.407 2.3-4.8 3.61-7.12.66-1.158 1.344-2.302 2.09-3.407.757-1.095 1.553-2.178 2.514-3.096zM159.726 221.742c.587.306 1.122.762 1.523 1.353.408.587.65 1.307.738 2.034.17 1.47-.205 2.895-.71 4.177-.516 1.29-1.202 2.47-1.952 3.584-.753 1.115-1.585 2.154-2.453 3.153-1.745 1.988-3.66 3.78-5.675 5.44-2.023 1.65-4.134 3.178-6.426 4.496 1.535-2.156 3.246-4.108 4.953-6.034 1.713-1.92 3.446-3.793 5.114-5.688 1.653-1.898 3.286-3.81 4.532-5.878.612-1.033 1.126-2.112 1.293-3.242.084-.565.063-1.14-.09-1.72-.152-.58-.457-1.142-.85-1.676zM269.988 226.267c.59.397 1.13.902 1.596 1.46.476.556.882 1.173 1.237 1.816.71 1.29 1.202 2.687 1.548 4.106.68 2.846.795 5.78.558 8.652-.246 2.875-.86 5.707-1.818 8.41-.965 2.696-2.266 5.292-4.06 7.516.787-2.737 1.476-5.397 2.01-8.086.54-2.682.935-5.374 1.17-8.07.225-2.693.296-5.395.048-8.066-.123-1.335-.332-2.66-.68-3.96-.345-1.306-.846-2.57-1.608-3.78zM255.886 122.8c.702.404 1.285 1.035 1.736 1.74.46.706.78 1.492 1.027 2.29.48 1.608.64 3.28.647 4.925-.01 3.3-.64 6.54-1.61 9.642-.98 3.102-2.335 6.084-4.07 8.836-.872 1.372-1.842 2.686-2.935 3.893-.55.6-1.122 1.178-1.737 1.71-.612.53-1.254 1.03-1.94 1.45 1.942-2.555 3.426-5.275 4.747-8.078 1.31-2.803 2.422-5.69 3.355-8.625.922-2.936 1.682-5.928 2.074-8.954.193-1.513.29-3.036.17-4.542-.13-1.5-.46-3.017-1.464-4.287zM132.01 165.987c.953-1.102 2.13-2.028 3.437-2.76 1.31-.724 2.758-1.237 4.244-1.532 2.988-.596 6.055-.355 8.934.266 2.89.63 5.64 1.642 8.27 2.843 2.628 1.216 5.152 2.612 7.538 4.28-2.84-.636-5.572-1.484-8.288-2.288-2.712-.81-5.4-1.6-8.093-2.19-2.69-.58-5.39-.96-8.082-.806-1.346.07-2.685.286-4.014.65-1.33.364-2.635.9-3.945 1.537zM103.73 240.22c-.596 3.008-1.423 5.96-2.216 8.907-.825 2.938-1.644 5.87-2.432 8.797-1.53 5.86-2.912 11.75-3.32 17.675-.104 1.477-.138 2.954-.083 4.422.044 1.467.188 2.926.435 4.36.486 2.868 1.455 5.63 2.955 8.11 1.515 2.467 3.568 4.628 5.976 6.378 2.392 1.783 5.113 3.155 7.93 4.35-3-.623-5.934-1.685-8.656-3.237-1.352-.788-2.64-1.71-3.83-2.76-1.19-1.052-2.25-2.262-3.18-3.567-1.876-2.61-3.08-5.677-3.717-8.797-.64-3.13-.737-6.32-.53-9.444.217-3.13.736-6.206 1.435-9.22.704-3.016 1.573-5.975 2.57-8.88 1.95-5.828 4.346-11.434 6.66-17.096zM182.416 295.226c3.917-.487 7.865-.603 11.828-.326 3.955.286 7.948 1.03 11.735 2.45 3.79 1.408 7.3 3.487 10.44 5.92 3.142 2.443 5.982 5.193 8.54 8.2-3.304-2.16-6.48-4.426-9.755-6.452-3.267-2.036-6.632-3.81-10.174-5.132-3.537-1.33-7.248-2.213-11.046-2.88-3.8-.68-7.672-1.147-11.568-1.78zM294.574 275.05c1.26-.566 2.556-.787 3.516-1.237.486-.22.907-.47 1.317-.775.203-.155.41-.31.608-.49l.16-.138.114-.107c.08-.08.16-.164.24-.256.637-.72 1.206-1.647 1.494-2.564.142-.462.217-.917.14-1.405-.07-.492-.36-1.015-.82-1.536.687-.025 1.44.268 1.98.886.546.615.793 1.463.82 2.248.03.795-.14 1.554-.413 2.255-.28.703-.674 1.347-1.19 1.93-.133.143-.273.282-.422.417-.067.06-.168.148-.24.205-.056.045-.134.11-.206.16-.296.21-.603.417-.938.588-.664.35-1.42.584-2.16.65-.74.067-1.444-.012-2.097-.166-.657-.16-1.274-.37-1.903-.663z"/></g><text transform="translate(74.768 379.496)" fill="#FFF" font-family="'MullerBlackItalic'" font-size="44.87">Benvenuti!</text></svg>