<svg xmlns="http://www.w3.org/2000/svg" width="72.727" height="72.727" viewBox="0 0 72.727 72.727"><path fill="#B6CC00" d="M55.088 55.05C38.548 71.586 7.2 67.053 7.2 67.053S2.67 35.706 19.208 19.167 67.094 7.16 67.094 7.16s4.533 31.35-12.006 47.89z"/><path fill="#414140" d="M26.483 47.838c0 .63.24 1.258.72 1.738.96.96 2.516.96 3.476 0 3.57-3.57 3.342-7.473 3.15-10.608-.182-3.085-.194-4.923 1.72-6.838 1.915-1.915 3.754-1.904 6.838-1.72 3.134.187 7.037.42 10.606-3.15.96-.96.96-2.518 0-3.478-.96-.96-2.517-.96-3.476 0-1.915 1.915-3.752 1.903-6.837 1.72-3.134-.187-7.036-.42-10.607 3.15s-3.34 7.474-3.15 10.61c.177 3.083.192 4.922-1.72 6.837-.48.48-.72 1.11-.72 1.738z"/></svg>