<svg xmlns="http://www.w3.org/2000/svg" width="141.414" height="183.838" viewBox="0 0 141.414 183.838"><path fill="#F0F1F1" d="M137.324 17.65c0-5.99-4.85-10.844-10.83-10.844H18.175c-5.98 0-10.83 4.853-10.83 10.845v151.64c0 5.99 4.85 10.845 10.83 10.845h108.32c5.98 0 10.83-4.854 10.83-10.845V17.65z"/><path fill="#192947" d="M18.173 23.056h108.322V153.05H18.173z"/><path fill="#CFD3D4" d="M77.758 166.594c0 2.985-2.435 5.407-5.424 5.407-2.99 0-5.422-2.42-5.422-5.406 0-3.002 2.433-5.422 5.422-5.422 2.99 0 5.424 2.42 5.424 5.422z"/><path fill="#B6BCBD" d="M88.586 102.5c0 1.985-1.615 3.61-3.612 3.61-1.994 0-3.61-1.626-3.61-3.61 0-1.995 1.616-3.608 3.61-3.608 1.997 0 3.612 1.613 3.612 3.61zM96.703 101.587h13.54v2.712h-13.54zM88.586 119.65c0 1.997-1.615 3.613-3.612 3.613-1.994 0-3.61-1.615-3.61-3.612 0-1.993 1.616-3.608 3.61-3.608 1.997 0 3.612 1.615 3.612 3.61zM96.703 118.74h13.54v2.71h-13.54z"/><path fill="#3E3E3F" d="M75.046 14.94c0 1.493-1.22 2.71-2.712 2.71-1.493 0-2.712-1.217-2.712-2.71 0-1.496 1.22-2.71 2.712-2.71 1.493 0 2.712 1.215 2.712 2.71z"/><path fill="#2B446B" d="M18.2 125.973L121.072 23.085H18.2"/><path fill="#FBE158" d="M37.136 63.68h16.238v18.96H37.136z"/><path fill="#17B198" d="M64.217 52.85h16.237v29.79H64.217z"/><path fill="#059BBF" d="M93.992 39.31h16.25v43.33h-16.25z"/><path fill="#FACB1B" d="M72.334 115.13c0 11.968-9.704 21.672-21.658 21.672-11.97 0-21.673-9.704-21.673-21.673 0-11.955 9.704-21.66 21.673-21.66 11.953 0 21.658 9.705 21.658 21.66z"/><path fill="#4AC3AF" d="M72.334 115.13c0 11.982-9.69 21.672-21.658 21.672-9.11 0-16.888-5.605-20.1-13.54l40.026-16.66c1.122 2.616 1.732 5.5 1.732 8.527z"/><path fill="#21B2D1" d="M72.375 115.142c0 7.643-3.954 14.35-9.933 18.222l-11.73-18.472 19.915-8.29c1.124 2.616 1.748 5.513 1.748 8.54z"/><path fill="#FA5655" d="M70.6 106.6l-19.925 8.304V93.47c8.925 0 16.61 5.423 19.926 13.13z"/></svg>