<svg xmlns="http://www.w3.org/2000/svg" width="60.606" height="54.545" viewBox="0 0 60.606 54.545"><path fill="none" stroke="#414140" stroke-width="3" stroke-miterlimit="10" d="M8.192 46.3c0 1.048.4 2.096 1.2 2.896 1.6 1.6 4.193 1.6 5.794 0 5.952-5.95 5.572-12.453 5.252-17.678-.304-5.142-.324-8.205 2.867-11.396s6.256-3.173 11.397-2.866c5.224.312 11.728.7 17.677-5.252 1.6-1.6 1.597-4.195 0-5.794-1.6-1.6-4.196-1.6-5.795 0-3.19 3.19-6.253 3.17-11.395 2.865-5.226-.312-11.728-.7-17.68 5.252s-5.565 12.454-5.25 17.68c.295 5.14.32 8.203-2.868 11.395-.8.8-1.2 1.85-1.2 2.897z"/></svg>