<svg xmlns="http://www.w3.org/2000/svg" width="960" height="560" viewBox="0 0 960 560"><title>HTML5 Logo Badge</title><path fill="none" stroke="#000" stroke-miterlimit="10" d="M277.656 503.125L232.812 0h493.28L681.25 503.125 478.906 560l-201.25-56.875z"/><path fill="none" stroke="#000" stroke-miterlimit="10" d="M480 227.5h-82.03l-5.47-63.438H480m0-61.25H324.688l1.094 16.406 15.312 170.625H480M478.906 452.812H480m0-64.53h-1.094L410 369.687l-4.375-49.22h-61.25l7.656 97.345 126.876 35M478.906 452.812l126.875-35 1.095-10.938 14.22-162.97 2.187-16.405H478.906M478.906 289.843h76.562l-7.656 79.844-68.906 18.594M478.906 164.062H628.75l1.094-13.125 3.28-31.72 1.095-16.405H478.905"/><path fill="none" stroke="#000" stroke-miterlimit="10" d="M279 40.25l201 .22h201.25l-38.28 430.937L480 516.25 314 471.5 279 40.25"/></svg>