<svg xmlns="http://www.w3.org/2000/svg" xmlns:xlink="http://www.w3.org/1999/xlink" width="458" height="282" viewBox="0 0 458 282"><g fill="#FFF" stroke="#000" stroke-width="2" stroke-miterlimit="10"><path d="M225.953 277.944c-1.46 0-2.912-.38-4.19-1.12l-13.34-7.893c-1.99-1.114-1.017-1.508-.36-1.737 2.656-.922 3.194-1.135 6.03-2.743.295-.166.687-.103.992.076l10.247 6.084c.372.206.896.206 1.237 0l39.95-23.058c.37-.212.61-.64.61-1.08v-46.104c0-.45-.24-.872-.62-1.1l-39.934-23.04c-.368-.215-.86-.215-1.23 0l-39.924 23.046c-.388.222-.633.657-.633 1.094v46.103c0 .442.244.86.63 1.07l10.943 6.322c5.938 2.97 9.573-.528 9.573-4.04V204.3c0-.644.518-1.152 1.16-1.152h5.067c.634 0 1.158.507 1.158 1.15v45.52c0 7.926-4.315 12.47-11.828 12.47-2.31 0-4.127 0-9.202-2.5l-10.476-6.03c-2.587-1.497-4.19-4.294-4.19-7.29V200.37c0-2.995 1.602-5.792 4.19-7.28L221.764 170c2.528-1.43 5.888-1.43 8.396 0l39.947 23.085c2.587 1.496 4.196 4.286 4.196 7.28v46.104c0 2.996-1.61 5.783-4.196 7.29l-39.947 23.064c-1.278.74-2.727 1.12-4.207 1.12z"/><path d="M238.293 246.182c-17.482 0-21.144-8.024-21.144-14.755 0-.64.513-1.15 1.154-1.15h5.165c.576 0 1.057.414 1.147.978.78 5.258 3.105 7.912 13.677 7.912 8.416 0 12-1.904 12-6.37 0-2.573-1.016-4.484-14.096-5.765-10.93-1.08-17.69-3.496-17.69-12.24 0-8.062 6.793-12.87 18.185-12.87 12.798 0 19.13 4.443 19.933 13.973.03.328-.086.644-.305.89-.218.228-.523.367-.845.367h-5.185c-.537 0-1.012-.38-1.12-.902-1.245-5.533-4.27-7.3-12.477-7.3-9.19 0-10.257 3.2-10.257 5.598 0 2.906 1.26 3.752 13.667 5.394 12.277 1.622 18.11 3.92 18.11 12.55-.003 8.704-7.26 13.69-19.92 13.69z"/></g><path fill-rule="evenodd" clip-rule="evenodd" fill="#FFF" stroke="#000" stroke-width="2" stroke-miterlimit="10" d="M102.243 97.567c0-1.84-.97-3.533-2.558-4.445L57.33 68.747c-.716-.42-1.52-.64-2.332-.674h-.438c-.81.033-1.612.252-2.34.674L9.868 93.122c-1.58.912-2.56 2.604-2.56 4.445l.092 65.635c0 .912.473 1.762 1.276 2.21.786.47 1.758.47 2.54 0l25.173-14.415c1.59-.945 2.56-2.614 2.56-4.438v-30.666c0-1.828.968-3.52 2.554-4.43l10.718-6.172c.8-.46 1.672-.687 2.564-.687.872 0 1.768.226 2.544.687l10.715 6.173c1.586.91 2.558 2.6 2.558 4.43v30.664c0 1.823.982 3.502 2.564 4.437l25.165 14.414c.79.472 1.775.472 2.558 0 .78-.447 1.27-1.296 1.27-2.208l.083-65.635zM306.04 7.34c-.793-.44-1.76-.43-2.543.03-.78.46-1.262 1.298-1.262 2.205v65c0 .64-.342 1.23-.894 1.55-.553.32-1.236.32-1.79 0l-10.61-6.11c-1.582-.913-3.53-.91-5.11 0L241.456 94.47c-1.584.913-2.56 2.602-2.56 4.43v48.915c0 1.828.976 3.516 2.56 4.432l42.37 24.47c1.583.915 3.533.915 5.117 0l42.376-24.47c1.583-.915 2.558-2.604 2.558-4.432V25.88c0-1.855-1.003-3.566-2.624-4.47L306.04 7.34zm-3.93 124.403c0 .456-.245.88-.64 1.106l-14.55 8.385c-.394.227-.88.227-1.276 0l-14.548-8.386c-.396-.228-.64-.65-.64-1.107v-16.8c0-.455.244-.878.64-1.107l14.547-8.403c.396-.23.884-.23 1.28 0l14.548 8.403c.396.23.64.652.64 1.108v16.8z"/><g fill-rule="evenodd" clip-rule="evenodd" fill="#FFF" stroke="#000" stroke-width="2" stroke-miterlimit="10"><path d="M447.13 114.505c1.577-.915 2.547-2.6 2.547-4.424V98.228c0-1.823-.97-3.51-2.548-4.425l-42.1-24.443c-1.584-.922-3.54-.923-5.127-.008l-42.356 24.453c-1.583.914-2.558 2.602-2.558 4.43v48.903c0 1.84.986 3.536 2.583 4.445l42.093 23.985c1.552.886 3.455.896 5.017.028l25.46-14.15c.808-.45 1.31-1.298 1.315-2.22.007-.922-.484-1.776-1.284-2.236l-42.625-24.465c-.797-.456-1.286-1.304-1.286-2.22V114.98c0-.915.487-1.76 1.28-2.217l13.266-7.648c.79-.456 1.765-.456 2.554 0l13.273 7.648c.793.456 1.28 1.302 1.28 2.216v12.057c0 .916.49 1.762 1.282 2.218.792.458 1.77.454 2.56-.005l25.37-14.745z"/><path d="M401.842 112.214c.304-.176.678-.176.982 0l8.13 4.69c.304.176.49.5.49.85v9.39c0 .35-.186.674-.49.85l-8.13 4.69c-.304.176-.678.176-.982 0l-8.124-4.69c-.304-.176-.49-.5-.49-.85v-9.39c0-.35.186-.674.49-.85l8.124-4.69z"/></g><path clip-rule="evenodd" fill="none" stroke="#000" stroke-width="2" stroke-miterlimit="10" d="M167.756 69.87c1.57-.908 3.505-.908 5.075 0l42.03 24.254c1.573.907 2.54 2.582 2.54 4.397v48.547c0 1.813-.968 3.49-2.538 4.397l-42.03 24.274c-1.57.907-3.507.907-5.078 0l-42.02-24.274c-1.57-.908-2.538-2.583-2.538-4.397v-48.55c0-1.812.968-3.488 2.54-4.394l42.02-24.254z"/><defs><path id="a" d="M172.84 69.87c-1.57-.908-3.504-.908-5.074 0l-42.03 24.254c-1.572.907-2.54 2.582-2.54 4.397v48.547c0 1.813.97 3.49 2.54 4.397l42.03 24.274c1.57.907 3.506.907 5.077 0l42.02-24.274c1.57-.908 2.538-2.583 2.538-4.397v-48.55c0-1.812-.967-3.488-2.538-4.394l-42.02-24.254z"/></defs><clipPath id="b"><use xlink:href="#a" overflow="visible"/></clipPath><g clip-path="url(#b)" fill="none" stroke="#000" stroke-width="2" stroke-miterlimit="10"><path d="M167.707 69.87l-42.57 24.254c-1.57.906-3.137 2.58-3.137 4.394v48.548c0 1.178.944 2.293 1.682 3.182L171.23 69.34c-1.264-.308-2.373-.136-3.523.53zM171.746 176.165c.337-.11.67-.245.986-.428l41.43-24.274c1.57-.908 1.837-2.583 1.837-4.397V98.52c0-1.218.14-2.367-.567-3.27l-43.687 80.915z"/><path opacity=".66" d="M214.65 94.123l-41.844-24.255c-.42-.242-.867-.414-1.327-.527L124.18 150.25c.398.48.878.896 1.428 1.214l42.094 24.274c1.255.724 2.707.86 4.042.428l44.188-80.914c-.346-.44-.77-.83-1.285-1.127z"/></g><g clip-path="url(#b)" fill="none" stroke="#000" stroke-width="2" stroke-miterlimit="10"><path d="M126.114 93.848l-.977.275c-1.57.907-3.137 2.582-3.137 4.395v48.548c0 1.813 1.54 3.49 3.11 4.397l42.344 24.274c1.134.655 2.556.83 3.78.54l-45.12-82.43zM216 98.52c0-1.815-.28-3.49-1.85-4.397l-41.594-24.255c-.37-.214-1.138-.373-1.54-.486L216 146.876V98.52z"/></g><use xlink:href="#a" overflow="visible" fill-rule="evenodd" clip-rule="evenodd" fill="none" stroke="#000" stroke-width="2" stroke-miterlimit="10"/></svg>