<svg xmlns="http://www.w3.org/2000/svg" width="846" height="208" viewBox="0 0 846 208"><path fill="#192947" d="M226.554 136.266c-.167 5.366-4.566 9.665-9.972 9.665-.115 0-.228-.004-.342-.008v30.812c.114 0 .227.004.342.004 22.42 0 40.614-18.092 40.783-40.473h-30.81zM529.604 166.49c-5.366-.167-9.616-4.566-9.616-9.972 0-.115.005-.228.01-.342h-30.862c0 .114-.004.227-.004.342 0 22.42 18.092 40.614 40.473 40.783v-30.81zM713.76 156.503c-.167 5.366-5.28 9.942-10.685 9.942-.115 0-.228-.005-.342-.01v30.866c.114.002.227 0 .342 0 22.42 0 41.38-18.417 41.55-40.798H713.76zM744.625 130.48c.167-5.366 4.753-7.91 10.16-7.91.114 0 .227.004.34.008V91.766c-.113 0-.226-.004-.34-.004-22.422 0-40.856 16.337-41.026 38.718h30.865zM479.477 132.963c5.366.167 9.66 4.512 9.66 9.918 0 .116-.006.23-.01.343h30.87c.185-22.577-18.384-40.955-40.88-41.125l.36 30.865z"/><path fill="#192947" d="M257.684 142.57c.167-5.366 4.566-9.665 9.972-9.665.115 0 .228-.144.342-.14V102.1c-.114 0-.227-.003-.342-.003-22.42 0-40.614 18.092-40.783 40.473h30.81z"/><path fill="#192947" d="M226.873 142.57h30.81l-.317-6.303h-30.812M489.132 142.57h30.865v13.607h-30.865zM713.76 130.48h30.865v27.002H713.76zM794.91 91.313v30.865l-39.783.4V91.766M836.804 82.788H805.94l-.402-39.784h30.812M4.403 145.874H216.24v30.865H4.404zM479.477 102.098v30.865l-211.838-.058v-30.807M702.733 166.436V197.3h-173.13v-30.81"/><path fill="none" stroke="#BDCA00" stroke-width="3.68" stroke-linecap="round" stroke-linejoin="round" stroke-miterlimit="10" d="M807.568 32.03l-10.694-16.324M822.563 29.937l10.695-16.325"/><circle fill="#192947" cx="819.799" cy="42.544" r="16.365"/><path fill="#FFF" d="M831.616 36.5c-.872-2.34-3.18-3.454-5.608-3.003-1.22.227-2.386.845-3.237 1.756-.892.956-.963 2.055-1.007 3.303-.05 1.406 2.133 1.278 2.183-.12.057-1.582.925-2.57 2.573-2.82 1.31-.2 2.544.295 3.022 1.58.49 1.316 2.567.63 2.074-.695zM809.738 42.65c-.266-1.373.765-2.46 1.985-2.895 1.565-.557 2.663-.067 3.52 1.228.774 1.174 2.602-.027 1.824-1.205-.65-.983-1.243-1.795-2.406-2.164-1.293-.41-2.755-.31-4 .215-2.292.964-3.464 3.1-2.996 5.514.267 1.376 2.34.67 2.074-.695z"/><path fill="#192947" d="M805.94 81.398c-.168 5.366-5.28 9.942-10.686 9.942-.115 0-.228-.005-.342-.01v30.866h.342c22.42 0 41.38-18.418 41.55-40.8H805.94z"/></svg>