<svg xmlns="http://www.w3.org/2000/svg" width="327.667" height="56.333" viewBox="-63.333 -8.667 327.667 56.333"><path fill="#F4F4F4" d="M-60.415 47.378l57.587-56.09h263.91l-48.435 56.09"/><path fill="#414140" d="M57.565 8.943c-6.592 0-10.527 4.17-10.527 11.152v8.252c0 .97.802 1.787 1.752 1.787.985 0 1.787-.8 1.787-1.787v-8.46c0-4.91 2.457-7.613 6.92-7.613 4.462 0 7.022 2.838 7.022 7.786v4.012c0 .985.8 1.787 1.786 1.787.95 0 1.752-.82 1.752-1.788v-4.185c0-6.75-4.02-10.944-10.493-10.944zM103.088 8.943c-6.472 0-10.492 4.194-10.492 10.944v4.186c0 .97.802 1.787 1.752 1.787.985 0 1.787-.8 1.787-1.787V20.06c0-4.948 2.56-7.786 7.023-7.786 4.462 0 6.92 2.703 6.92 7.613v8.46c0 .985.8 1.787 1.786 1.787.95 0 1.752-.818 1.752-1.787v-8.252c0-6.983-3.936-11.152-10.528-11.152zM145.883 8.922h-8.25c-.97 0-1.79.802-1.79 1.752 0 .985.802 1.787 1.79 1.787h8.46c4.908 0 7.612 2.458 7.612 6.92 0 4.463-2.838 7.023-7.786 7.023h-4.012c-.986 0-1.788.8-1.788 1.788 0 .95.82 1.753 1.788 1.753h4.185c6.75 0 10.944-4.02 10.944-10.492-.002-6.592-4.17-10.528-11.154-10.528zM188.162 29.734c-6.07 0-10.128-3.677-10.128-10.753v-8.25c0-.763.624-1.387 1.353-1.387.763 0 1.387.624 1.387 1.387v8.46c0 5.307 2.844 8.012 7.318 8.012 4.613 0 7.422-2.948 7.422-8.186v-4.01c0-.764.624-1.388 1.387-1.388.73 0 1.354.624 1.354 1.387v4.185c0 6.868-4.093 10.544-10.092 10.544z"/><path fill="#414140" d="M188.162 30.134c-6.593 0-10.528-4.17-10.528-11.152V10.73c0-.97.802-1.787 1.752-1.787.986 0 1.788.8 1.788 1.787v8.46c0 4.91 2.456 7.614 6.92 7.614 4.462 0 7.022-2.838 7.022-7.786v-4.01c0-.986.8-1.788 1.788-1.788.95 0 1.752.818 1.752 1.787v4.186c-.002 6.747-4.022 10.94-10.494 10.94zm-8.776-20.39c-.516 0-.953.45-.953.987v8.253c0 6.58 3.547 10.352 9.73 10.352 6.068 0 9.692-3.793 9.692-10.144v-4.185c0-.536-.436-.988-.953-.988-.545 0-.988.443-.988.988v4.01c0 5.376-2.924 8.587-7.823 8.587-4.904 0-7.717-3.065-7.717-8.41V10.73c0-.545-.442-.987-.987-.987z"/><circle fill="#414140" cx="57.708" cy="19.169" r="2.148"/><circle fill="#414140" cx="188.144" cy="19.169" r="2.148"/><g fill="#414140"><path d="M12.192 30.144c-.997 0-1.806-.81-1.806-1.806v-11.75c0-.996.81-1.805 1.806-1.805.997 0 1.806.81 1.806 1.806v11.75c0 .996-.808 1.804-1.806 1.804zM22.788 10.738c0 .997-.81 1.806-1.806 1.806H3.402c-.996 0-1.805-.81-1.805-1.806 0-.997.81-1.806 1.806-1.806h17.58c.996 0 1.805.81 1.805 1.806z"/></g></svg>