<svg xmlns="http://www.w3.org/2000/svg" width="221" height="35" viewBox="0 0 221 35"><path fill="#B6CC00" d="M-37.518 30.297c-11.766 11.766-34.07 8.54-34.07 8.54s-3.224-22.3 8.542-34.068 34.07-8.542 34.07-8.542 3.225 22.303-8.542 34.07z"/><path fill="#414140" d="M-57.87 25.167c0 .448.172.895.513 1.237.683.683 1.79.683 2.473 0 2.54-2.54 2.378-5.316 2.242-7.547-.13-2.195-.138-3.502 1.224-4.865 1.362-1.362 2.67-1.355 4.865-1.224 2.23.133 5.006.3 7.546-2.242.683-.683.682-1.79 0-2.473-.683-.683-1.79-.683-2.473 0-1.362 1.362-2.67 1.354-4.864 1.223-2.23-.133-5.006-.3-7.547 2.242-2.542 2.54-2.377 5.316-2.243 7.547.126 2.194.137 3.502-1.224 4.865-.34.342-.512.79-.512 1.237z"/><g><path fill="#414140" d="M62.84 5.945c-7.214 0-11.52 4.562-11.52 12.203v9.03c0 1.06.878 1.955 1.917 1.955 1.078 0 1.955-.877 1.955-1.955V17.92c0-5.37 2.69-8.33 7.57-8.33 4.885 0 7.686 3.107 7.686 8.52v4.39c0 1.08.877 1.956 1.955 1.956 1.04 0 1.917-.895 1.917-1.955v-4.578c0-7.388-4.4-11.977-11.48-11.977zM112.653 5.945c-7.082 0-11.48 4.59-11.48 11.975v4.58c0 1.06.877 1.955 1.916 1.955 1.077 0 1.954-.877 1.954-1.955v-4.39c0-5.414 2.8-8.52 7.685-8.52 4.88 0 7.57 2.958 7.57 8.33v9.257c0 1.078.877 1.955 1.955 1.955 1.04 0 1.917-.895 1.917-1.955v-9.03c0-7.64-4.306-12.202-11.52-12.202zM159.48 5.922h-9.028c-1.06 0-1.956.878-1.956 1.917 0 1.077.877 1.954 1.956 1.954h9.257c5.37 0 8.33 2.69 8.33 7.57 0 4.885-3.106 7.686-8.52 7.686h-4.39c-1.08 0-1.956.877-1.956 1.956 0 1.04.896 1.917 1.956 1.917h4.58c7.385 0 11.974-4.4 11.974-11.48 0-7.214-4.562-11.52-12.203-11.52zM205.744 28.695c-6.642 0-11.083-4.023-11.083-11.766V7.9c0-.835.684-1.518 1.48-1.518.836 0 1.52.683 1.52 1.518v9.257c0 5.807 3.11 8.767 8.007 8.767 5.048 0 8.122-3.226 8.122-8.957v-4.39c0-.834.682-1.517 1.517-1.517.797 0 1.48.683 1.48 1.518v4.58c0 7.515-4.478 11.537-11.043 11.537z"/><path fill="#414140" d="M205.744 29.133c-7.214 0-11.52-4.562-11.52-12.203V7.9c0-1.06.878-1.955 1.917-1.955 1.08 0 1.957.877 1.957 1.955v9.258c0 5.372 2.688 8.33 7.57 8.33 4.885 0 7.686-3.105 7.686-8.52v-4.39c0-1.077.877-1.954 1.956-1.954 1.038 0 1.916.895 1.916 1.955v4.58c0 7.384-4.4 11.973-11.482 11.973zM196.14 6.82c-.564 0-1.042.495-1.042 1.08v9.03c0 7.2 3.88 11.33 10.646 11.33 6.64 0 10.607-4.15 10.607-11.1v-4.58c0-.587-.476-1.082-1.042-1.082-.596 0-1.08.485-1.08 1.08v4.39c0 5.882-3.2 9.395-8.56 9.395-5.368 0-8.446-3.354-8.446-9.204V7.9c0-.596-.485-1.08-1.08-1.08z"/><circle fill="#414140" cx="62.996" cy="17.135" r="2.35"/><circle fill="#414140" cx="205.725" cy="17.135" r="2.35"/><g fill="#414140"><path d="M13.19 29.144c-1.09 0-1.975-.885-1.975-1.976V14.312c0-1.09.885-1.976 1.976-1.976 1.092 0 1.977.885 1.977 1.976V27.17c0 1.09-.885 1.974-1.976 1.974zM24.785 7.91c0 1.09-.885 1.975-1.976 1.975H3.572c-1.09 0-1.976-.885-1.976-1.976 0-1.092.885-1.977 1.976-1.977H22.81c1.09 0 1.975.885 1.975 1.976z"/></g></g></svg>