<svg xmlns="http://www.w3.org/2000/svg" width="55.556" height="88.889" viewBox="0 0 55.556 88.889"><path fill="none" stroke="#09435B" stroke-miterlimit="10" d="M8.446 37.7c1.388 0 2.775.53 3.835 1.588l35.993 35.99c2.12 2.115 2.12 5.55 0 7.668s-5.55 2.12-7.67 0L4.612 46.956c-2.118-2.115-2.118-5.55 0-7.668 1.06-1.06 2.448-1.59 3.836-1.59z"/><path fill="none" stroke="#09435B" stroke-miterlimit="10" d="M44.437 1.71c1.388 0 2.775.53 3.835 1.588 2.12 2.12 2.12 5.553 0 7.67L12.28 46.957c-2.12 2.118-5.55 2.118-7.67 0-2.118-2.12-2.118-5.554 0-7.67l35.993-35.99c1.06-1.06 2.447-1.59 3.834-1.59z"/></svg>