<svg xmlns="http://www.w3.org/2000/svg" width="61.616" height="91.919" viewBox="0 0 61.616 91.919"><text transform="translate(138.576 132.333)" font-family="'MyriadPro-Regular'" font-size="12">carousel-control.right</text><path fill="#09435B" d="M50.92 52.586c-1.39 0-2.776-.53-3.836-1.59L11.094 15.01c-2.12-2.116-2.12-5.55 0-7.67s5.55-2.118 7.668 0l35.992 35.99c2.12 2.116 2.12 5.55 0 7.67-1.06 1.06-2.448 1.588-3.835 1.588z"/><path fill="#09435B" d="M14.927 88.576c-1.388 0-2.775-.53-3.835-1.59-2.12-2.118-2.12-5.552 0-7.668l35.992-35.99c2.12-2.118 5.55-2.118 7.67 0 2.118 2.12 2.118 5.554 0 7.67L18.76 86.988c-1.06 1.058-2.447 1.588-3.835 1.588z"/></svg>